<svg height="316.227766" viewBox="0 0 1448 1448" width="316.227766" xmlns="http://www.w3.org/2000/svg"><g fill="none" stroke="#d1899f" stroke-width="2"><path d="m242.03 571.11c-30.35 9.18-35.66 42.55-34.22 69.83 2.1 39.78 12.55 78.65 21.45 117.31 4.6 19.99 7.36 38.57 9.73 60.25q1.7 15.58-1.94 28.71-.11.42.31.53 13.04 3.43 25.47 12.43 26.01 18.86 44.85 36.41 20.59 19.17 41.37 38.12c27.99 25.53 91.7 83.81 130.42 46.25a.3.3 0 0 1 .5.29c-8.1 35.94 26.76 57.97 54.49 70.3 34.75 15.45 71.49 25.63 107.8 36.66q27.51 8.36 58.44 23.59 8.19 4.04 15.66 12.31.36.4.74.01c10.17-10.32 19.83-14.52 35.24-21.22 54.75-23.8 115.68-31.11 168.34-62.7 21.26-12.75 39.29-32 33.1-59.11q-.16-.71.39-.23 19 16.25 42.91 10.21c20.39-5.16 39.67-17.44 56.31-30.66 25.77-20.49 49.53-43.48 73.53-65.99q20.72-19.44 48.79-38.44 9.31-6.3 20.28-8.84.45-.11.33-.56-3.63-13.12-1.87-29.39 3.78-34.87 9.78-60.44c8.78-37.39 18.75-75.18 21.11-113.67 1.71-28.04-2.43-63.97-34.89-72.94a.24.24 0 0 1 0-.46c40-12.12 36.59-62.69 32.48-94.61-5.89-45.78-22.05-92.4-27.59-139.71-1.71-14.66-3.79-28.28.76-41.85q.16-.46-.31-.58-13.3-3.47-26.28-12.95-30.66-22.38-53.07-43.91-26.31-25.27-54.12-48.86c-26.02-22.07-75.82-59.38-108.97-27.51a.26.26 0 0 1 -.44-.25c8.65-37.27-29.84-60.14-58.37-72.31-47.37-20.21-98.08-29.84-145.25-50.41-14.11-6.16-23.37-10.45-32.85-20.05q-.32-.33-.66-.01-10.31 10.18-25.98 16.89-26.1 11.18-38.29 15.49c-36.71 12.99-83.86 23.53-123.61 42.55-26.63 12.73-56.35 34.31-48.69 67.89q.18.79-.43.25c-22.31-19.46-49.65-11.57-72.3 2-23.1 13.83-43.73 31.58-63.41 49.84-26.72 24.8-51.55 49.22-82.42 70.81q-11.5 8.05-23.92 11.27-.49.13-.32.61c3.95 11.36 2.95 24.83 1.47 36.76-2.03 16.5-4.59 32.53-8.41 49.17-7.84 34.16-16.56 68.19-20.81 103.04-3.29 27.06-3.75 67.92 24.08 83.37 2.64 1.47 6.13 2.65 9.32 3.84q.98.37-.03.67"/><path d="m225.13 1080.42c45.93 15.94 82.96 21.86 122.08 39.54a.36.36 0 0 1 .1.58c-2.77 2.79-6.06 5.79-7.92 9.05-7.95 13.96-.84 23.12 10.61 30.87 37.2 25.17 78.94 43.61 121.67 57.14 61.89 19.6 126.76 30.47 191.51 34.29q103.62 6.11 205.99-10.82c82.33-13.61 164.31-40.9 231.58-91.7q4.68-3.54 6.18-6.52c4.31-8.61-2.51-19.8-8.79-25.49a.59.59 0 0 1 .15-.97c40.38-18.55 83.81-26.19 125.42-41.05q.52-.18.69.33c7.06 20.74 12.31 40.44 12.69 63.35.11 6.58 6.65 6.94 9.12 1.42 2.21-4.93 7.93-24.51 16.15-24.11 12.66.61 29.75 29.21 34.88 39.19 2.41 4.68 7.51 7.33 10.41 1q1.88-4.12 2.36-8.27c1.86-16.13 2.29-36.86-3.61-52.6-6.44-17.2-15.68-33.68-23.75-50.23a1.07 1.07 0 0 1 .33-1.34q10.84-7.9 20.69-16.92c22.42-20.54 7.86-47.99-2.53-69.75-4.82-10.09-6.51-18.12-5.52-28.72 1.6-17.03 4.46-32.51-17.83-35.58-49.45-6.81-70.34 33.63-73.53 75.38q-.04.51-.49.74c-49.33 24.39-106.32 34.52-160.27 45.77q-8.13 1.7-15.98 4.54c-17.24 6.26-8.68 37.94-6.24 50.2q.27 1.4.17 2.47-.04.51-.43.83c-21.49 17.62-46.85 30.48-73.26 40.24-43.56 16.09-89.46 25.77-135.52 31.16q-101.34 11.87-202.48-1.51c-63.03-8.34-130.31-24.78-183.88-60.6a1.8 1.79 25.6 0 1 -.72-2.03c3.85-12.12 13.76-49.16-3.2-55.55q-8.3-3.13-20.62-5.68c-52.92-10.93-107.14-20.88-156.17-44.64q-.43-.21-.48-.69c-4.61-43.52-24.08-83.97-76.44-75.19-20.54 3.44-16.21 21.81-15.04 37.2.84 10.89-1.58 18.31-6.76 29-8.37 17.27-19.15 38.79-9.1 57.56 5.27 9.84 18.53 19.63 28.35 26.75q.46.33.28.86-.87 2.66-2.11 5.17c-10 20.22-24.09 42.47-25.68 65.73-.45 6.5-2.27 41.54 6.02 44.21 3.26 1.05 6.05-1.7 7.47-4.59 4.07-8.31 26.25-46.03 38.83-37.87 6.81 4.42 10.21 25.8 16.08 26.68 3.61.53 4.99-2.29 5.06-5.53.52-22.29 5.11-41.71 12.84-63q.17-.47.64-.3m535.47 235.71c3.01 11.02 14.11 17.98 24.72 20.04a.85.85 0 0 1 .68.83v8.21q0 .42-.42.47c-2.81.29-6.46-.08-8.66 1.27-10.17 6.26 12.08 24.73 18.33 25.81 6.79 1.17 7.29-6.19 6.88-11.63q-.05-.63.58-.63h23.79q.5 0 .5.5v20.35q0 .56.49.83l15.24 8.37q.52.28.52-.31v-73.99q0-.5.5-.5h64q.5 0 .5.5v11.25a.53.53 0 0 1 -.53.53q-12.07-.11-24.15.05c-11.65.15-20.23 9.56-18.94 21.24 1.7 15.41 11.3 30.31 21.92 41.18q.39.4.86.08l4.52-3.12q.52-.36.08-.8c-7.06-7.01-11.94-14.84-13.55-24.64-1.3-7.92.84-15.18 8.49-18.28 5.29-2.15 14.3-1.22 20.79-1.24q.51-.01.51.5v36.55q0 .53.45.83l15.25 10.17q.55.37.55-.3v-74.02q0-.51.51-.51l15.22.04a.34.34 0 0 0 .3-.51l-7.69-13.53q-.26-.47-.8-.47h-15.54q-.56 0-.4-.53c2.13-6.86-12.43-24.71-17.99-31.08-6.94-7.94-17.69-14.17-28.85-10.69a.4.39-20.8 0 0 -.25.55l6.86 14.63a.56.56 0 0 0 .66.3c10.1-2.97 16.66.02 22.71 8.02q6.82 9.03 13.65 18.05a.47.47 0 0 1 -.37.75h-111.67q-.75 0-.35.64l8.3 13.24q.31.49.88.5l16.84.16q.48.01.48.48v29.06q0 .58-.58.58l-23.57-.07q-.6 0-.6-.61.01-11.41-.03-22.81-.02-4.01-.52-6.18c-3.23-13.93-23.17-28.61-36.42-17.18q-5.84 5.04-5.18 14.28.09 1.34-.57.16l-6.57-11.76q-.28-.49-.84-.49h-102.97q-.69 0-.35.59l7.45 13.34q.32.57.96.57h63.88q.59 0 .6.59l.19 9.76q.01.5-.47.68-8.96 3.36-14.19 11.43-.37.56-.82.05c-7.98-9.16-18-15.57-29.57-9.72-14.42 7.28-14.99 23.27-6.65 35.53q9.74 14.32 24.58 24.59.47.32.84-.11l3.82-4.41q.45-.51-.06-.96c-9.41-8.29-25.59-24.68-16.27-38.51 5.13-7.61 13.94-7.38 19.42-.03q.41.55.13 1.18l-5.75 13a.66.65-66.4 0 0 .33.86l13.59 6.02q.48.21.6-.31c1.92-8.35 8.27-23.56 17.24-26.5 5.86-1.92 13.59.44 12.8 7.68-1.11 10.02-13.04 20.8-21.04 25.92a.44.44 0 0 0 -.07.69l12.8 11.91q.36.34.71-.01c11.87-11.94 22.16-28.63 15.28-45.74q-3.16-7.84-10.6-11.37-.56-.26-.54-.88l.34-10.75q.01-.57.58-.57l21.13-.06q.44 0 .56.42m-429.9 70.77c16.17-4.33 2.58-34.94-13.84-24.56-5.33 3.37-4.52 9.75-1.56 14.4a.55.54-31.5 0 1 -.19.77c-12.62 7.19-25.35-3.94-26.11-16.77-.53-8.84 5.45-18.23 15.02-18.22q14.59.01 29.32-.04.44 0 .44-.44l-.04-25.78q0-.51.5-.51h24a.74.74 0 0 1 .74.74l.07 63.04q0 .62.52.96l15.19 10.02q.51.33.51-.27l.25-73.88a.63.62-89.5 0 1 .62-.62l72.11.02q.5 0 .5.49v22.26a.37.37 0 0 1 -.65.24c-10.65-12.63-30.92-21.83-45.62-9.4-17.26 14.6-.95 35.11 13.22 42.96 11.2 6.21 23.67 2.87 32.41-5.83q.64-.63.64.27v12.8q0 .53.45.83l15.26 10.17q.54.36.54-.29v-74.01q0-.5.5-.5h26.25q.5 0 .5.5v63.25q0 .52.43.81l15.3 10.21q.47.31.48-.26l.17-73.89q0-.62.63-.62h59.87q.62 0 .62.63v22.03a.36.35 0 0 1 -.36.35q-16.51-.03-32.99.01-3.91.01-5.58.76c-13.18 5.93 9.34 35.41 15.16 26.31 2.36-3.69-1.89-12.18 5.03-12.45q8.94-.34 18.1-.07.64.02.64.66v27.43q0 .51.45.75l15.35 8.35q.46.25.46-.28l-.01-73.62q-.01-.89.89-.89l14.73.04a.44.44 0 0 0 .38-.66l-7.63-13.49q-.21-.36-.62-.36h-400.16q-.75 0-.35.63l8.25 13.26q.29.47.84.5l2.71.16q.46.03.46.49v31.44q0 .78-.71.46l-16.27-7.3q-.53-.24-.18-.71c10.63-14.35 1.65-29.72-10.8-38.48q-9.58-6.74-20.49-2.17c-9.52 3.99-14.31 13.4-9.67 22.93 3.6 7.41 10.67 12.5 17.93 16.11a.48.47 43.2 0 1 .03.84q-13.89 7.99-28.55 14.45a.27.27 0 0 0 -.07.45l11.94 10.2q.39.33.85.12 17.12-7.85 32.38-18.87.49-.35 1.02-.09l12.85 6.3q.51.25.03.54l-40.94 25.38q-.47.29-.05.64l11 9.42a.56.56 0 0 0 .67.04l38.52-26.25a.33.32-17.5 0 1 .51.26v19.41q0 .51.45.76l15.22 8.42q.58.32.58-.34v-74q0-.51.5-.51l94.63.01a.63.62-90 0 1 .62.63v11.08q0 .54-.53.54c-8.22 0-19.3-.93-26.06 1.3-9.4 3.09-15.66 12.7-15.51 22.66.22 15.33 23.5 42.07 40.41 35.73q.44-.17.32.29-2.78 10.39-10.3 17.78c-14 13.76-25.67-7.55-6.54-11.93a.34.34 0 0 0 .11-.61c-2.34-1.53-13.06-9.03-15.03-8.51q-5.38 1.41-8.07 6.3-.28.51-.86.51-5.89-.03-11.43-2a.4.4 0 0 1 -.04-.73c14.62-7.31 10.25-30.04-7.07-29.39-8.74.32-16.12 6.87-16.42 15.76-.55 16.11 21.32 22.42 33.97 22.81q.6.02.57.62c-.57 11.64 15.35 18.08 24.6 18.94 12.64 1.18 21.3-6.89 26.54-17.63a.38.38 0 0 1 .69.01l6.46 13.69q.24.53.77.29l9.05-4.08q.51-.23.22-.71l-12.92-21.53q-.31-.51.27-.67m689.47-1.73 10.19 23.01q.26.57.81.27l7.18-3.86q.63-.34.22-.93l-13.55-19.47q-.36-.52.26-.65c25.2-5.13 18.75-29.31 3.77-40.56q-.67-.5.17-.5l26.78.03q.5 0 .5.49v38.38q0 .51.44.75l15.26 8.44q.55.3.55-.33v-73.99q0-.5.5-.5h26.25q.43 0 .43.43l.35 63.52q0 .51.42.79l15.33 10.15a.21.2-72.5 0 0 .32-.17l.15-74.06q0-.66.66-.66h59.84q.5 0 .5.5v22a.5.5 0 0 1 -.5.5q-16.24.01-32.51-.01c-23.68-.01 1.52 36.54 9.75 26.79q.34-.4.32-.92c-.18-4.5-1.07-11.14 4.62-11.26q9.07-.21 17.93-.06a.43.42-90 0 1 .42.43l-.05 27.64q0 .5.44.74l15.34 8.42q.49.27.49-.29l.12-73.91q0-.57.57-.57h27.56q.5 0 .5.5v29.04q0 .68-.67.7c-2.56.07-5.33-.55-7.35 1.09-7.3 5.94 13.08 22.07 17.32 24.89q1.16.78 2.91.82c5.13.14 4.05-7.95 4.04-11.79q0-.5.5-.5h25.75a.5.5 0 0 1 .5.5v18.59q0 .53.44.82l15.32 10.11a.34.33 16.9 0 0 .52-.27l-.04-73.99q0-.51.5-.51h15.02q.7 0 .36-.61l-7.5-13.42q-.27-.47-.81-.47h-302.03a.24.23-14.6 0 0 -.21.35l7.81 13.77q.21.38.64.38h60.48a.5.5 0 0 1 .5.5v11.35a.41.41 0 0 1 -.41.4h-48.19q-.56 0-.8.5l-2.14 4.46q-.31.63.36.83c10.82 3.26 21.25 9.87 23.97 21.63 1.71 7.4-4.25 11.06-10.27 12.73q-.51.14-.82-.28c-4.78-6.35-14.69-9.33-16.82.99-2.09 10.12 9.84 15.36 17.95 15.74q.59.03.84.57"/><path d="m568.68 1408.42c4.43-3.51 10.21-4.41 14.86-.46q14.42 12.25 26.95 26.49.37.43.81.06l4.77-3.96q.5-.42.05-.9-14.74-15.79-30.88-30.14-11-9.78-23.03-1.33-.61.43-.21 1.06l5.72 9.02q.39.61.96.16m695.55.02c4.03-3.08 9.29-4.55 13.75-1.17 10.44 7.9 19.41 17.65 28.35 27.17q.35.38.75.04l4.65-3.98q.54-.47.04-.98-13.51-14.04-27.74-27.33c-8.21-7.68-17-11.43-26.29-3.77q-.38.31-.12.72l5.83 9.16q.31.5.78.14m-966.94-639.25c47.45 100.43 130.39 182.42 231.71 227.31 216.26 95.82 468.6 12.89 587.43-190.82 71.42-122.44 82.89-270.11 32.51-402.38-61.13-160.51-210.67-276.67-381.19-295.31-201.12-21.97-394.56 89.71-475.58 275.44-53.79 123.31-52.08 264.67 5.12 385.76"/><path d="m677.71 165.64c3.47-5.28 4.87-9.46.5-14.64-7.97-9.43-18.74-9.12-27.87-1.44a.84.83 50.2 0 0 -.1 1.17l4.69 5.58q.33.39.7.03c3.36-3.4 9.77-7.68 14.67-6.44 5.59 1.41 4.53 9.19.87 12.4q-.4.35-.94.34-5.45-.12-10.25 2.49-.38.21-.16.59l3.83 6.5a1.47 1.47 0 0 0 1.9.58l8.64-4.15q.38-.18.59.18 3.99 6.71-.81 11.68c-8.44 8.75-18.86-2.44-23.87-8.76q-.32-.41-.68-.04l-1.97 1.97q-.36.36-.12.8c4.48 8.11 12.45 15.93 21.92 17.24 11.18 1.55 17.67-10.26 12.08-19.43a.4.4 0 0 1 .58-.53q5.74 4.23 12.41 1.73.52-.19.57.36l1.17 13.04q.05.53.54.74l8.91 3.92q.56.24.51-.36l-3.9-41q-.07-.77.7-.78l17.7-.23q.6 0 .57.6l-.76 15.65q-.03.62-.63.45-3.66-1.07-5.19 2.05-.24.49-.01.98 3.54 7.75 10.73 12.41c4.29 2.78 3.99-3.95 4.39-6q.09-.49.59-.47l14.13.72q.5.02.47.52l-.54 9.93a1.73 1.73 0 0 0 .71 1.51l8.04 5.88a.25.25 0 0 0 .4-.19l1.99-41.45q.05-.99 1.03-.89 18.45 1.72 36.68 4.94.75.13.63.89l-.86 5.35q-.09.56-.65.46c-5.63-.95-13-2.92-18.01-1.91-15.84 3.21-5.76 27.11.28 35.47q.34.46.85.21l2.42-1.17q.68-.33.21-.93-6.61-8.35-5.2-17.42c1.49-9.61 11.25-7.34 18.07-5.67q.52.13.43.66l-3.37 20.22q-.08.47.28.8l7.51 6.98q.45.42.55-.19l6.88-41q.13-.76.89-.61 35.31 7.22 68.79 20.52a.47.46-69.8 0 1 .26.59l-4.15 11.35a.25.24 46.1 0 1 -.46-.01c-2.64-7.45-9.33-14.89-17.8-14.83-23.51.15-11.19 39.22 11.59 30.47a.46.46 0 0 1 .6.59l-2.24 6.12q-.18.48.12.9l5.9 8.25q.46.63.73-.1l14.69-39.02a.54.54 0 0 1 .72-.3l15.85 7.15q.62.28.3.87l-7.18 13.7q-.25.48-.76.29l-3.53-1.29q-.6-.21-1.11.17-2.15 1.64-1.39 5.19c.8 3.71 4.7 22.73 10.66 8.88q.22-.51.71-.25l12.46 6.56q.54.29.26.84l-4.63 9.01q-.29.56.01 1.11l4.81 8.65q.36.65.71-.01l19.49-36.77q.29-.55.82-.23l13.31 8.1q.55.33.2.87l-19.45 29.87q-.36.55-.1 1.15l4.03 9.37q.23.53.55.05l23.13-35.19q.42-.64 1.03-.19l28.25 20.75q.32.23.08.54l-7.48 9.6q-.29.37-.66.09c-3.51-2.69-14.69-12.89-18.48-12.99-7.24-.2-7.57 18.02-1.76 17.45q.48-.05.8-.4l3.55-3.9a1.36 1.35-49.9 0 1 1.82-.16l8.7 6.64q.54.41.13.94l-9.44 12.06q-.34.44-.13.95l3.85 9.12a.28.28 0 0 0 .48.07l25.83-33.05q.39-.51.88-.08l10.5 9.11q.5.44.96-.05l5.44-5.79q.36-.39-.03-.74c-89.35-80.42-205.19-118.8-324.97-109.08a.37.36-18.7 0 0 -.28.56l4.95 7.78q.34.54.98.51l5.11-.29q.53-.03.58.5l1 11.09q.05.5-.27.9c-3.78 4.77-10.19 4.3-15.34 3.75q-.67-.07-.3-.63m-143.54 13.79c-8.75-2.38-24.99-8.76-32.63-2.02q-.48.41-.01.84l6.48 5.93q.39.36.8.03c6.83-5.44 15.72-5.37 23.7-2.63q.78.26.04.62-89.33 43.54-151.23 121.2-.43.53.23.71l8.27 2.34q.81.23 1.33-.42 13.1-16.25 27.87-30.97.34-.34.8-.2c7.12 2.2 2.35 11.04-1.27 14.3q-.33.31-.68.01l-2.42-2.1q-.42-.37-.8.05c-4.06 4.49-10.62 10.82-12.18 15.82-5.01 16.02 22.23 17.66 31.35 16.92q.43-.03.48-.46l.26-2.56q.06-.57-.51-.59c-6.26-.13-15.81-1.66-19.61-7.18-4.28-6.22 2.29-11.46 5.99-15.71q.32-.38.32-.87v-.7q0-.6.52-.3c9.98 5.72 25.7 7.75 30.37-6.04q.57-1.66 1.13-3.54.2-.64.66-.16l5.32 5.5q.42.43 1.01.3l9.56-2.2q.62-.14.18-.6l-28.28-29.82a.69.69 0 0 1 .05-1l12.04-10.28q.47-.4.85.08l21.56 27.38a1.54 1.52-20.9 0 0 1.32.58l9.93-.76a.39.39 0 0 0 .27-.63l-25.56-32.54q-.36-.46.11-.8l13.79-10.28q.43-.32.72.13l6.25 9.67a.6.59-29 0 1 -.25.86c-2.29 1.06-7.15 4.3-2.75 6.97q7.04 4.25 15.47 2.92c4.41-.69 3.28-4.22 1.59-6.82q-6.16-9.46-12.34-18.91a.6.59 57.1 0 1 .17-.82l9.35-6.14a.4.4 0 0 1 .56.12l20.15 30.93q.27.42.77.38l9.75-.77a.31.31 0 0 0 .23-.48l-22.77-35.17a.51.5 59.2 0 1 .18-.72l31.45-17.17q.57-.31.85.27l5.22 10.43q.27.53-.26.8-9.23 4.6-18.38 9.38c-1.79.93-2.2 3.77-1.09 5.55q4.13 6.56 12.16 6.97c5.05.26 1.39-5.84.68-7.76a1.09 1.09 0 0 1 .53-1.35l10.08-5.19a.53.53 0 0 1 .72.23l6.88 13.75q.23.46.74.49l9.81.55a.36.36 0 0 0 .34-.52l-18.64-37.24a.52.52 0 0 1 .26-.71q17.06-7.82 34.74-14.1a.81.8 70 0 1 1.02.48l4.24 11.59a.36.36 0 0 1 -.5.45c-6.87-3.33-14.43-6.27-20.36.05-14.08 14.96 16.28 34.02 25.62 15.12a.54.54 0 0 1 .99.06l2.35 6.53q.21.57.81.69l9.67 1.91q.66.14.43-.5l-6.29-17.35q-.2-.54-.02-1.08c1.06-3.13 7.47-12.46 11.77-8.09 3.44 3.5 1.8 12.03.27 16.26q-.23.65.44.81l8.84 2.08q.49.12.6-.37c2.69-11.46-.71-23.05-12.62-26.81-5.68-1.79-9.45 1.09-13.14 5.1q-.4.44-.61-.12l-3.61-9.7q-.22-.58.38-.75l26.78-7.88a.31.31 0 0 0 .11-.53l-7.5-6.49a1.35 1.34-32.7 0 0 -1.28-.27l-25.28 7.65q-.4.12-.54-.28c-1.56-4.56-9.94-10.44-13.93-13.19-4.74-3.27-14.06-6.01-18.95-1.85q-.43.36-.06.79l5.79 6.6q.3.34.67.09c8.41-5.81 16.2 1.84 24.07 8.42q.42.36-.1.54-20.22 7.05-39.7 15.93-.5.23-.9-.14-6.24-5.71-12.68-11.31c-6.44-5.6-12.82-7.21-19.53-.89q-.41.39.05.72l6.96 5.02q.43.31.76-.11 4.1-5.4 9.73-1.66 4.31 2.85 10.88 8.31.79.66-.21.39"/><path d="m816.46 171.09c-11.04 6.72-2.61 26.61 1.81 34.28q.36.61 1.02.36l2.45-.92q.6-.23.32-.81c-2.58-5.51-5.51-14.4-2.54-20.19 3.8-7.41 11.46-3.52 17.42-2.02a.98.98 0 0 0 1.19-.7l1.78-6.62q.13-.51-.37-.66c-6.89-2.06-17.38-6.19-23.08-2.72m-69.48 20.55c-28.44-6.36-15.83 34.07 10.74 21.7a1.1 1.1 0 0 0 .55-1.43l-2.82-6.6q-.24-.59-.77-.23c-3.92 2.71-16.99 7.92-17.9-.79-.83-7.99 9.1-6.03 13.37-6.04q.6 0 .33-.54l-2.74-5.48q-.24-.47-.76-.59m-253.85 11.04q-.39-1.85-2.33-3.03c-7.62-4.62-25.04-13.57-32.84-4.48q-.39.46.1.81l7.1 5.11q.48.34.89-.08c3.39-3.4 7.55-4.73 12.22-2.79q6.7 2.79 13.47 5.6a1.02 1.01 5.5 0 0 1.39-1.14m310.53 227.99c6.87-26.57 1.25-58.52-19.33-77.75q-11.89-11.11-23.6-22.41c-10.07-9.71-16.15-20.34-16.55-34.41-.19-6.69 1.61-15.83 2.02-23.09.89-15.86-3.02-40.17-17.64-49.89q-.42-.28-.44-.78c-.43-13.96-17.5-16.24-25.95-7.96-10.99 10.77-8.72 35.98-8.67 50.07.06 12.82-3.13 22.69-9.22 33.86-9.91 18.2-22.31 33.09-36.06 49.65-20.42 24.59-32.61 53.67-24.83 86.07a.53.52-19.1 0 1 -.3.61c-102.69 44.54-161.45 151.22-143.43 261.91q.08.44.53.44l68.49.02a.27.27 0 0 0 .16-.48c-16.43-12.25-27.44-31.15-25.56-52.34 1.25-14.15 8.91-23.64 17.77-36.37q7.42-10.65 1.47-20.81c-5.64-9.63 1.66-14.86 10.23-16.22q28.01-4.46 51.79 8.57 1.76.96 1.22-.97c-.87-3.08-2.27-6.47-1.36-9.54 3.64-12.25 26.29-13.99 36.44-13.51 18.84.89 34.51 10.02 44.53 26.16a.33.32 42.8 0 0 .56-.02c4.17-7.74 7.14-16.37 11.5-24.27 7.69-13.94 26.82-17.92 36.87-4.01 6.35 8.77 9.32 18.47 13.95 27.9a.66.66 0 0 0 1.16.05c15.18-24.73 45.05-31.62 71.26-21.63 8.05 3.07 11.5 9.41 8.24 17.73q-1.48 3.79 2.06 1.79 23.7-13.38 52.43-7.84c5.38 1.04 11.67 4.83 10.71 11.06-.32 2.05-1.83 4.28-2.86 6.26-2.51 4.82-3 10.26-.36 15.09 4.84 8.86 15.29 19.92 18.75 32.13 6.85 24.22-5.49 46.02-23.81 60.77q-.61.49.17.49h69.43a.55.54 4.3 0 0 .54-.46c18.3-113.83-44.49-223.57-151.96-265.19q-.48-.18-.35-.68m183.88-148.27a.43.43 0 0 1 -.25-.61c4.07-7.75-5.18-8.88-8.1-4.01-2.03 3.39-.01 7.35 2.61 9.8q.32.3.23.73l-2.6 12.64q-.33 1.63 1.28 2.04l3.17.79q.55.14.56-.42l.37-13.12q.02-.52.53-.41c9.86 2.18 23.04 3.13 29.97-6.01 7.44-9.82 2.75-27.96-12.26-25.73-9.28 1.39-7.2 17.61-5.06 23.38a1.07 1.06 74.2 0 1 -.79 1.42q-4.9.96-9.66-.49"/><path d="m1032.95 290.99a.3.3 0 0 1 .43.01l6.29 6.97a.3.3 0 0 0 .52-.13l2.42-10.55a.3.3 0 0 0 -.07-.27l-16.4-17.68a.3.3 0 0 0 -.44 0l-6.08 6.36a.3.3 0 0 0 0 .42l6.99 7.42a.3.3 0 0 1 -.01.42l-26.51 26.02a.3.3 0 0 0 -.08.29l2.78 10.05a.3.3 0 0 0 .5.13zm-102.102-12.603a.54.54 0 0 0 -.223-.73l-6.675-3.549a.54.54 0 0 0 -.73.223l-86.468 162.621a.54.54 0 0 0 .223.73l6.675 3.55a.54.54 0 0 0 .73-.223zm-432.971 4.588a.63.63 0 0 0 -.862-.228l-6.378 3.712a.63.63 0 0 0 -.227.862l92.193 158.404a.63.63 0 0 0 .862.228l6.378-3.712a.63.63 0 0 0 .227-.862z"/><path d="m980.93 330.31c6.07 5.81 17.28 6.16 19.79-3.57q3.84-14.96-10.6-17.21-.66-.1-.68.56l-.26 7.35q-.02.6.58.59c12.52-.33 9.05 11.36-1.45 7.95-8.72-2.82-15.3-17.83-16.66-26.1q-.1-.58-.68-.64l-2.14-.21q-.67-.07-.68.61-.21 18.24 12.78 30.67m62.61-25.26a.31.31 0 0 0 -.31-.31l-11.18.02a.31.31 0 0 0 -.31.31l.02 11.38a.31.31 0 0 0 .31.31l11.18-.02a.31.31 0 0 0 .31-.31zm-13.06 13.01a.31.31 0 0 0 -.31-.31l-11.12.02a.31.31 0 0 0 -.31.31l.02 11.12a.31.31 0 0 0 .31.31l11.12-.02a.31.31 0 0 0 .31-.31zm-174.116 10.906a.59.59 0 0 0 -.337-.764l-6.936-2.69a.59.59 0 0 0 -.764.337l-38.23 98.565a.59.59 0 0 0 .336.764l6.936 2.69a.59.59 0 0 0 .764-.337l38.23-98.565m-284.632 3.757a.63.63 0 0 0 -.83-.32l-6.748 2.99a.63.63 0 0 0 -.32.83l42.556 96.034a.63.63 0 0 0 .83.32l6.748-2.99a.63.63 0 0 0 .32-.83zm446.807 11.202a.67.67 0 0 0 -.04-.946l-5.383-4.932a.67.67 0 0 0 -.947.041l-124.187 135.527a.67.67 0 0 0 .042.946l5.382 4.932a.67.67 0 0 0 .947-.041l124.187-135.527m-600.264-.749a.5.5 0 0 0 -.707-.02l-5.565 5.264a.5.5 0 0 0 -.02.706l125.902 133.138a.5.5 0 0 0 .707.02l5.565-5.263a.5.5 0 0 0 .02-.707zm515.109 30.197a.36.36 0 0 0 -.084-.502l-6.448-4.6a.36.36 0 0 0 -.502.084l-61.694 86.492a.36.36 0 0 0 .084.502l6.448 4.6a.36.36 0 0 0 .502-.084zm-428.418-1.539a.28.28 0 0 0 -.391-.059l-6.488 4.783a.28.28 0 0 0 -.059.392l62.606 84.916a.28.28 0 0 0 .391.059l6.488-4.783a.28.28 0 0 0 .059-.392zm580.726 53.496a.53.53 0 0 0 -.732-.163l-155.302 98.939a.53.53 0 0 0 -.162.731l4.072 6.393a.53.53 0 0 0 .732.163l155.302-98.939a.53.53 0 0 0 .162-.731zm-580.216 99.063a.41.41 0 0 0 -.125-.566l-154.46-98.401a.41.41 0 0 0 -.565.125l-4.202 6.596a.41.41 0 0 0 .125.566l154.46 98.401a.41.41 0 0 0 .565-.125zm486.769-94.807a.66.66 0 0 0 -.93-.08l-80.776 68.02a.66.66 0 0 0 -.08.93l4.716 5.599a.66.66 0 0 0 .93.08l80.775-68.02a.66.66 0 0 0 .08-.93l-4.715-5.6m-467.551 68.288a.4.4 0 0 0 -.048-.564l-80.286-67.607a.4.4 0 0 0 -.564.048l-5.05 5.997a.4.4 0 0 0 .048.564l80.287 67.607a.4.4 0 0 0 .563-.048zm516.963 10.499a.45.45 0 0 0 -.599-.217l-95.773 44.864a.45.45 0 0 0 -.216.598l3.274 6.991a.45.45 0 0 0 .599.217l95.773-44.864a.45.45 0 0 0 .216-.598zm-551.951 45.21a.71.71 0 0 0 -.342-.944l-94.143-44.1a.71.71 0 0 0 -.944.342l-3.063 6.538a.71.71 0 0 0 .342.944l94.143 44.1a.71.71 0 0 0 .944-.342zm643.377-25.044a.47.47 0 0 0 -.59-.307l-175.445 55.318a.47.47 0 0 0 -.307.59l2.316 7.343a.47.47 0 0 0 .59.307l175.445-55.318a.47.47 0 0 0 .307-.59zm-655.103 55.674a.74.74 0 0 0 -.484-.929l-173.634-54.746a.74.74 0 0 0 -.928.483l-2.153 6.828a.74.74 0 0 0 .483.929l173.634 54.746a.74.74 0 0 0 .928-.483l2.153-6.828m167.571 83.018c8.94 41.28 69.74 43.48 100.93 36.18 15.62-3.66 32.7-11.71 39.61-27.27 7.13-16.05 3.58-33.25-8.64-45.84-15.41-15.88-33.33-31.73-42.33-52.45-3.58-8.24-9.95-29.53-23.53-21.05-5.09 3.19-7.79 10.62-10.27 15.89-9.57 20.31-24.17 37.68-40.03 53.21-11.75 11.52-19.4 24.43-15.74 41.33"/><path d="m584.82 648.46c-1.73 46.73 52.21 56.74 87.14 57.63q.92.02.08-.34c-20.76-8.99-33.23-22.86-34.23-45.88-.66-15.16 7.13-27.38 17.78-37.79q12.36-12.07 23.61-25.18.32-.38.33-.86.03-3.18-1.17-5.57c-7.31-14.55-20.62-23.45-36.75-24.58-8.75-.62-18.88.32-26.65 4.82q-.46.26-.28.76c8.56 23.56-17.82 44.58-26.97 63.71q-2.6 5.43-2.89 13.28m234.48-77.82c-7.19-4.22-17-5.23-25.11-4.84-16.55.8-30 9.33-37.79 24.14q-1.4 2.65-1.58 5.7-.03.51.29.9c11.14 13.62 26.26 25.96 34.53 38.55 9.68 14.74 9.02 33.27.51 48.25-5.91 10.41-16.53 17.89-27.78 22.33a.22.22 0 0 0 .09.42c33.36-.91 86.3-10.23 87.37-53.98.24-9.56-2.16-17.22-7.5-24.95-11.01-15.93-29.72-35.28-22.63-55.44a.91.9 25.1 0 0 -.4-1.08"/><path d="m533.47 649.11c.23 19.23 12.98 34.79 29.08 44.11 27.34 15.81 59.62 18.95 90.64 18.84q.17 0 .23-.08.1-.14-.08-.16c-34.32-4.06-73.59-17.98-75.59-58.77-1.17-23.9 16.7-39.04 27.85-57.91a1.71 1.7 36.8 0 0 -.31-2.12c-13.25-12.34-36.06-14.8-53.02-11.44q-.62.12-.37.71c3.81 8.78 5.78 16.4 1.3 25.17-6.6 12.95-19.93 24.41-19.73 41.65m348.72-67.62c-17.28-3.19-37.84-.8-51.86 10.35q-2.58 2.06-.65 4.94 8.83 13.14 17.97 26.02c13.43 18.94 11.88 44.36-2.81 61.7-15.17 17.91-42.11 24.83-64.37 27.34a.08.07-46.2 0 0 0 .15c37.13 1.1 105.87-6.77 118.75-51.49q4.92-17.07-4.41-31.83c-8.98-14.22-23.07-28.54-12.16-46.13q.54-.87-.46-1.05m-411.64 34.444a.39.39 0 0 0 -.315-.453l-102.565-18.27a.39.39 0 0 0 -.453.316l-1.368 7.68a.39.39 0 0 0 .316.452l102.565 18.27a.39.39 0 0 0 .453-.316l1.368-7.68m598.444-18.301a.64.64 0 0 0 -.742-.518l-103.55 18.445a.64.64 0 0 0 -.518.742l1.28 7.187a.64.64 0 0 0 .742.518l103.55-18.445a.64.64 0 0 0 .518-.742zm-601.785 50.964a.45.45 0 0 0 -.43-.47l-181.987-7.945a.45.45 0 0 0 -.469.43l-.334 7.653a.45.45 0 0 0 .43.47l181.987 7.945a.45.45 0 0 0 .469-.43zm684.628-7.955a.52.52 0 0 0 -.542-.496l-183.206 7.999a.52.52 0 0 0 -.497.542l.33 7.533a.52.52 0 0 0 .541.496l183.206-7.999a.52.52 0 0 0 .497-.542l-.33-7.533m-79.638 49.652a.27.27 0 0 0 -.246-.292l-105.115-9.011a.27.27 0 0 0 -.292.246l-.685 7.99a.27.27 0 0 0 .246.293l105.115 9.011a.27.27 0 0 0 .292-.246l.685-7.99m-603.976-8.929a.35.35 0 0 0 -.379-.318l-103.56 8.878a.35.35 0 0 0 -.318.378l.67 7.832a.35.35 0 0 0 .38.318l103.56-8.878a.35.35 0 0 0 .318-.378l-.67-7.832m-147.474 44.135c52.85-.09 105.67.58 158.49.1 28.13-.26 56.25.37 84.39-.09 15.99-.27 24.47.06 36.19-5.43a.54.54 0 0 0 -.06-1c-12.42-3.92-24.68-7.86-36.34-13.57-2.23-1.09-4.08-.79-6.42-.8-81.19-.26-161.55.45-243.63.01a.38.38 0 0 0 -.36.51l7.2 19.89q.14.38.54.38m513.59-5.8c2.34 3.29 17.7 5.45 21.67 5.51 85.29 1.26 170.73.65 256.04.22q.56 0 .75-.53l7.05-19.36q.44-1.21-.85-1.17c-22 .69-44.03.13-66 .09-59.13-.09-118.36.75-177.47.1q-2.22-.03-4.24.95c-12.58 6.07-24.37 9.51-36.81 13.77a.28.28 0 0 0 -.14.42m-157.48 17.97c3.54 14.51 16.81 14.01 27.08 20.51q8.73 5.52 12.81 15.37a.5.5 0 0 0 .92.01q5.4-12.62 17.92-17.93c9.06-3.84 18-5.77 21.49-16.14 10.1-30.05-45.17-25.66-58.88-23.85-11.88 1.57-24.94 7.28-21.34 22.03"/><path d="m632.29 738.39c-9.48 5.32-1 10.55 4.23 12.55 10.9 4.17 28.39 6.74 39.09.74q.56-.31.19-.83c-8.17-11.62-8.73-20.9-.81-32.72q.29-.43-.23-.38c-8.03.7-18.94.77-25.74 7.77q-7.44 7.64-16.73 12.87m-55.52-2.01q20.4 9.36 42.94 9.51 1.11.01 1.08-1.1-.16-6.49 5.63-10.64c6.3-4.53 13.16-7.89 18.04-14.54q.26-.37-.19-.39l-23.77-1.41q-.5-.03-.9.29c-13.08 10.71-23.71 17.72-42.11 17.56q-.6-.01-.82.28a.29.28-58.4 0 0 .1.44m182.25 15.35c10.98 5.91 29.26 3.48 40.91-1.55 2.22-.95 6.24-3.6 6.56-6.27.41-3.45-11.23-10.13-14.11-12.15-4.39-3.08-7.03-7.84-11.91-10.06-6.23-2.84-13.79-3.51-20.69-3.88q-.7-.03-.25.51c8.54 10.42 6.65 21.81-.76 32.35a.72.72 0 0 0 .25 1.05m30.63-32.24q2.61 3.02 5.45 5.51c6.54 5.75 19.08 9.59 18.45 20.1a.66.66 0 0 0 .66.7q23 .09 43.79-9.55a.3.3 0 0 0 -.14-.57c-18.51.38-29.37-6.51-43.05-17.68q-.32-.26-.74-.23l-24.33 1.5a.13.13 0 0 0 -.09.22m-10.65 45.48 315.15.04a.9.89 12.4 0 0 .81-.51l9.8-20.35q.2-.4-.26-.4h-238.73q-.45 0-.83.23c-14.42 8.65-33.46 12.27-50.06 12.48-2.22.02-3.2-1.22-5.52-.24q-14.61 6.1-30.38 8.48-1.82.27.02.27m-424.56-.23q150.77.46 301.56.21 2.04 0 .02-.27-16.43-2.16-31.57-8.8-.45-.19-.94-.09-3.19.65-6.44.55c-16.01-.48-33.65-4.13-47.59-12.33q-.45-.26-.97-.26h-239.78q-.69 0-.39.63l9.56 19.87q.25.52.83.52 7.83-.06 15.71-.03m430.97 38.67c-3.13-11.64 4.88-17.54 14.84-20.07a.3.3 0 0 0 -.08-.59h-451.63a.33.33 0 0 0 -.28.5l12.5 20.27q.3.48.86.48h423.33q.62 0 .46-.59m126.02-20.07c23.81 3.61 48.45 9.32 69.63 19.64q2.04.99 4.23 1 42.99.05 86.02.01a.98.96 15.3 0 0 .83-.46l12.49-20.14q.39-.64-.36-.64c-15.52 0-173.15-.92-174.09.19q-.24.28.13.3.6.02 1.12.1"/><path d="m793.05 796.6c-2.79 7.21 9.56 13.23 14.68 14.51 8.83 2.2 17.53 2.17 26.49 3.13 2.92.31 6.83 2.31 3.69 5.69-3.49 3.77-9.46 3.81-14.23 3.15-18.8-2.58-35.67-5.64-55.42-2.04-11.73 2.14-24.41 12.92-12.33 24.81 18.68 18.39 50.07 21.55 74.82 21.91q53.18.78 104.49-13.03c16.29-4.38 43.25-12.56 52.93-25.8 15.05-20.58-63.04-35.31-72.64-36.86q-40.73-6.56-81.97-5.19c-6.67.22-37.52 1.97-40.51 9.72m-256.31 45.47c39.88-8.26 81.73-7.95 121.64-.01q4.8.96 9.34.95 37.96-.08 76.01.06.61 0 .44-.58-3.33-11.28 4.37-19.91a.27.27 0 0 0 -.21-.45l-373.62.08q-.91 0-.35.71l15.51 19.74q.34.42.88.42 68.46-.18 136.92-.05 4.42.01 9.07-.96m521.49-20.01-59.18.1q-.63 0-.67.63c-.64 8.94-6.09 14.9-13.07 19.77a.29.29 0 0 0 .16.53l56.78-.13q.65 0 1.06-.52l15.3-19.61q.6-.77-.38-.77"/><path d="m498.86 879.97c3.58 18.66 36.61 27.26 51.93 29.84q36.29 6.12 72.95 2.92c5.47-.48 16.92-2.18 20.06-6.78 6.42-9.41-20.65-14.72-21.07-21.97q-.03-.51.3-.89c.79-.94 1.93-1.26 3.19-.87q16.82 5.27 33.92 9.53c11.63 2.9 30.11 2.72 36.22-10.21 9.38-19.87-32.59-30.39-44.57-32.5q-47.73-8.39-95.79-2.02c-14.31 1.9-61.49 10.34-57.14 32.95m-91.82-18.28c2.69 3.03 18.92 20.55 21.72 20.55q30.59.03 61.3 0 .56 0 .48-.56-1.66-11.42 5.84-19.99a.28.27-68.9 0 0 -.2-.46l-88.95.03a.26.26 0 0 0 -.19.43m425.27 14.1c-22.56-.18-47.53-2.87-67.97-13.47q-1.92-1-4.01-1-30.12-.14-60.15-.04a.27.27 0 0 0 -.2.45q7.61 8.56 5.27 19.94-.11.58.47.58h299.42q.44 0 .75-.31l20.13-20.11q.59-.59-.25-.59-39.65.03-79.28-.04-3.68 0-7.36.98-52.43 14.05-106.82 13.61"/><path d="m662.49 900.19c-3.35 0-6.22-.97-9.52-1.73q-.75-.17-.55.57c4.55 16.93-17.28 20.7-28.65 22.34q-.94.14.01.14l332.27-.01q.55 0 .99-.33l26.88-20.15a.44.44 0 0 0 -.26-.79q-160.57.08-321.17-.04m-213.16 1.08 26.59 19.89q.44.33 1 .33l98.82.02q1.22.01.01-.13c-23.95-2.73-51.42-5.74-71.52-20.45-.74-.55-1.61-.71-2.48-.71q-26.28 0-52.09.05a.56.55 63.3 0 0 -.33 1m57.87 39.27q18.53 10.34 37.87 19.01 2.21.99 4.67.98 39.86-.19 79.72.25.38 0 .72-.16.28-.14.57-.14 126.2.02 252.43.02 2.53 0 4.83-1.02 19.79-8.78 37.51-18.85 1.98-1.13-.3-1.13h-417.75q-2.13 0-.27 1.04m91.55 38.61q117.72 32.93 235.46-.01a.2.2 0 0 0 -.05-.39h-234.71c-.36 0-.42.13-.71.26q-.19.08.01.14m147.111-828.517a.61.61 0 0 0 -.582-.637l-13.965-.634a.61.61 0 0 0 -.637.581l-.718 15.804a.61.61 0 0 0 .582.637l13.965.634a.61.61 0 0 0 .637-.581zm121.279 44.667c-8.19-18.88-32.38-6.19-21.02 1.39 5.88 3.92 14.71 2.1 20.75-.67q.49-.22.27-.72m54.032 6.308a.36.36 0 0 0 -.148-.486l-12.75-6.78a.36.36 0 0 0 -.487.15l-7.7 14.48a.36.36 0 0 0 .15.486l12.75 6.78a.36.36 0 0 0 .486-.15l7.7-14.48m-349.983-9.418c-1.74 2.53-2.22 5.97-.1 8.34 4.27 4.79 12.84-5.98 14.69-9.77q.2-.43-.22-.63c-4.33-2.08-11.26-2.49-14.37 2.06m-147.5 78.25q-.4.03-.47.39-.09.43.35.47c12.65 1.1 13.08 9.36 6.21 17.62q-.99 1.18.53 1.42c10.46 1.68 13.88-8.16 14.54-16.99q.04-.51-.31-.88l-10.52-11.18q-.37-.4-.77-.04-5.05 4.42-9.56 9.19m307.12 173.35c-3.96.22-5.49-5.29-.01-6.58 6.55-1.53 12.58-3.5 16.72-9.19 3.84-5.28 7.04-11.79 7.47-18.18.94-13.77-11.24-22.49-24.18-20.75-2.1.28-12.67 4.01-13.57-.59-1.17-5.96 7.07-6.04 10.81-7.04 6.89-1.83 11.22-5.01 12.79-12.2 2.88-13.27-1.44-25.79-6.76-37.84-8.08-18.28-17.96-36.07-17.85-56.66q.12-21.51 1.23-42.99c.12-2.38.06-6.35-.7-8.02-1.79-3.97-6.24-1.39-7.49 1.31-7.21 15.51-1.51 35.18-4.27 51.51-5.35 31.58-31.56 59.86-51.05 83.86-9.04 11.14-17.36 27.4-19.74 41.59-2.79 16.66-.39 35.9 10.61 49.36q4.6 5.64 13.13 10.73 24.48 14.59 53.21 17.1c5.85.51 12.26.17 18.43.04 3.28-.07 5.69 1.34 4.58 4.95q-.14.48-.56.77-2.63 1.86-4.36 2.1c-19.94 2.85-43.07 1.09-61.34-8.38q-.45-.24-.66.23c-9.43 20.36 52.57 20.04 60.85 19.48q12.3-.83 18.23-2.44c6.97-1.88 18.08-7.11 21.25-14.2a2.12 2.12 0 0 0 -.87-2.7c-5.11-2.99-18.25 3.69-20.18.12-5.21-9.61 24.52-5.41 21.75-20.31-2.62-14.01-27.26-15.65-37.47-15.08m-44.42 64.09c13.17 8.53 34.2 8.85 49.68 5.49 4.58-.99 14.47-4.1 16.19-9.09q.51-1.48-.46-2.53-.35-.37-.84-.25c-21.05 5.45-45.14 5.07-66.65 1.7q-1.01-.16-.81.85.47 2.26 2.89 3.83m23.55 19.43q8.62 5.01 16.65-.54 2.47-1.7 2.42-4.44a1.14 1.13-2.6 0 0 -1.22-1.11q-10.18.79-20.35-.01-.64-.05-.67.59-.12 3.6 3.17 5.51m300.39-259.19c-1.01-3.47-4.64-2.92-6.81-1.27-3.77 2.86-3.44 10.02-2.14 14.02q.16.48.63.3c5.01-1.98 10.03-7.21 8.32-13.05m260.21 637.59c-.02-3.37-3.39-5.43-6.43-5.32-34.16 1.29-48.63 34.32-51.52 63.53q-.04.47.38.25 24.51-13.32 43.57-33.48c5.76-6.09 14.05-16.26 14-24.98m-1089.33 15.18c12.17 20.46 34.43 37.26 54.59 48.42q.51.28.45-.3c-2.93-27.62-14.53-58.5-46-63.29-12.93-1.97-14.85 5.42-9.04 15.17m1071.75 77.34a.33.33 0 0 1 -.17.43l-21.77 9.29a.33.33 0 0 1 -.43-.17l-7.72-18.14a.33.33 0 0 0 -.44-.17l-4.85 2.14a.33.33 0 0 0 -.17.43l19.38 45.47a.33.33 0 0 0 .43.17l4.93-2.1a.33.33 0 0 0 .17-.43l-9.3-21.69a.33.33 0 0 1 .17-.43l21.75-9.24a.33.33 0 0 1 .43.17l9.33 21.63a.33.33 0 0 0 .43.18l4.9-2.03a.33.33 0 0 0 .18-.44l-19.46-45.61a.33.33 0 0 0 -.44-.18l-4.86 2.14a.33.33 0 0 0 -.17.43zm-1056.22 25.32a.31.31 0 0 1 -.51-.24l1.46-41.66a.31.31 0 0 0 -.55-.2l-30.85 41.6a.31.31 0 0 0 .11.46l4.93 2.42a.31.31 0 0 0 .39-.1l19.14-26.61a.31.31 0 0 1 .56.19l-.94 35.83a.31.31 0 0 0 .51.25l27.36-23.35a.31.31 0 0 1 .5.31l-8.73 31.63a.31.31 0 0 0 .16.36l4.98 2.42a.31.31 0 0 0 .43-.21l13.03-50.19a.31.31 0 0 0 -.51-.31zm987.08-12.51a.41.41 0 0 0 .54.22l10.26-4.18a.41.41 0 0 1 .54.23l16.64 40.62a.41.41 0 0 0 .54.22l4.77-2.01a.41.41 0 0 0 .22-.54l-16.67-40.57a.41.41 0 0 1 .22-.54l10.31-4.23a.41.41 0 0 0 .22-.53l-1.67-4.26a.41.41 0 0 0 -.54-.23l-26.94 11.01a.41.41 0 0 0 -.22.54zm-920.92-1.11a.38.38 0 0 0 -.64-.25l-40.06 38.85a.38.38 0 0 0 .11.62l4.96 2.18a.38.38 0 0 0 .41-.08l9.75-9.48a.38.38 0 0 1 .41-.08l21.32 8.33a.38.38 0 0 1 .24.33l.71 13.33a.38.38 0 0 0 .24.34l5.37 2.04a.38.38 0 0 0 .51-.38zm924.35 34.84a.31.31 0 0 1 .32.07l9.85 9.41a.31.31 0 0 0 .33.06l5.31-2.15a.31.31 0 0 0 .09-.51l-40.54-38.85a.31.31 0 0 0 -.53.21l-2.97 56.02a.31.31 0 0 0 .42.31l5.42-2.08a.31.31 0 0 0 .2-.27l.63-13.49a.31.31 0 0 1 .2-.27zm-905.98-21.29a.51.51 0 0 0 .31.65l10.2 3.71a.51.51 0 0 1 .31.65l-14.85 41.04a.51.51 0 0 0 .3.66l4.68 1.73a.51.51 0 0 0 .65-.3l14.83-41.11a.51.51 0 0 1 .65-.31l10.17 3.64a.51.51 0 0 0 .64-.28l1.76-4.01a.51.51 0 0 0 -.29-.69l-27.21-9.85a.51.51 0 0 0 -.65.31zm820.19 32.75a.3.3 0 0 1 .51-.26l25.03 25.71a.3.3 0 0 0 .51-.19l2.39-35.95a.3.3 0 0 1 .55-.13l16.57 28.37a.3.3 0 0 0 .37.13l5.16-1.94a.3.3 0 0 0 .15-.44l-26.92-44.41a.3.3 0 0 0 -.55.14l-2.32 41.84a.3.3 0 0 1 -.52.19l-28.87-30.25a.3.3 0 0 0 -.51.26l8.3 51.11a.3.3 0 0 0 .39.24l5.26-1.66a.3.3 0 0 0 .2-.34zm-766.16-20.18a.31.31 0 0 0 -.54-.18l-38.86 40.55a.31.31 0 0 0 .12.51l5.49 1.88a.31.31 0 0 0 .33-.08l9.17-9.77a.31.31 0 0 1 .33-.08l21.75 7.48a.31.31 0 0 1 .21.26l1.3 13.5a.31.31 0 0 0 .21.26l5.51 1.83a.31.31 0 0 0 .4-.32zm699.15 9.35-8.71 1.67q-.73.14-.59.88l3.2 16.56q.17.88.82.27c4.98-4.68 9.85-11.18 7.66-17.97a2.1 2.1 0 0 0 -2.38-1.41m233.22 64.34c14.25 4.87 27.05 25.38 34.31 38.17q.39.7.46-.1c1.49-16.36 2.38-34.4-3.6-50.14-6.37-16.75-15.09-32.03-22.69-48.07q-.25-.54-.75-.22-20.66 13.34-43.44 22.67-.54.22-.36.78c5.49 17.17 10.43 33.46 12.44 51.52a.39.39 0 0 0 .76.08c3.57-10.04 10.83-18.81 22.87-14.69m-860.06-55.01c-6.86 7.26 4.68 15.2 9.6 19.04q.61.47.81-.27l5.09-19.13q.15-.54-.39-.67c-3.94-.99-11.95-2.33-15.11 1.03m-202.79 74.44c1.86-17.66 6.48-34.84 12.43-51.46a.5.5 0 0 0 -.29-.63q-23.05-9.19-43.76-22.83a.33.33 0 0 0 -.48.13q-8.72 18.07-17.78 36.05c-5.64 11.17-9.08 22.98-9.54 35.9q-.46 13.09.91 26.26.1.97.57.12c6.8-12.44 27.05-44.92 45.09-38.04 6.18 2.36 9.4 8.64 12.15 14.62a.37.37 0 0 0 .7-.12m826.916-20.479a.43.43 0 0 0 -.58-.185l-4.638 2.395a.43.43 0 0 0 -.185.579l22.611 43.809a.43.43 0 0 0 .58.185l4.638-2.395a.43.43 0 0 0 .185-.579zm-16.676 7.869a.34.34 0 0 0 -.2.28l-2.94 24.21a.34.34 0 0 1 -.54.23l-19.68-14.31a.34.34 0 0 0 -.34-.04l-5.61 2.5a.34.34 0 0 0 -.07.59l26.08 19a.34.34 0 0 1 .11.13l8.49 19.56a.34.34 0 0 0 .45.17l4.96-2.19a.34.34 0 0 0 .17-.45l-8.55-19.54a.34.34 0 0 1 -.03-.18l3.9-31.94a.34.34 0 0 0 -.47-.36zm-637.87 36.71a.32.32 0 0 0 .08.53l5.03 2.45a.32.32 0 0 0 .35-.05l10.25-9.15a.32.32 0 0 1 .34-.05l21.48 9.03a.32.32 0 0 1 .2.29l.42 13.5a.32.32 0 0 0 .2.28l5.5 2.39a.32.32 0 0 0 .45-.31l-2.11-56.37a.32.32 0 0 0 -.54-.23zm71.05-5.41a.33.33 0 0 1 .61.13l3.2 35.82a.33.33 0 0 0 .56.2l24.78-26.08a.33.33 0 0 1 .57.27l-5.01 32.22a.33.33 0 0 0 .21.35l5.29 2a.33.33 0 0 0 .45-.26l7.16-51.3a.33.33 0 0 0 -.57-.28l-28.46 30.54a.33.33 0 0 1 -.57-.19l-3.4-41.67a.33.33 0 0 0 -.62-.14l-26.18 44.68a.33.33 0 0 0 .17.48l5.19 1.95a.33.33 0 0 0 .4-.15zm537.17 21.6a.39.39 0 0 1 .41.1l9.39 9.76a.39.39 0 0 0 .42.09l5.26-2.07a.39.39 0 0 0 .14-.64l-39.19-40.03a.39.39 0 0 0 -.67.23l-5.42 55.86a.39.39 0 0 0 .52.41l5.37-1.89a.39.39 0 0 0 .26-.33l1.28-13.41a.39.39 0 0 1 .26-.33zm-485.4 8.54a1.81 1.81 0 0 1 3.45-.11l8.4 23.71q.19.56.76.71l5.62 1.46q.78.2.5-.55l-9.02-23.94q-.22-.58.4-.55 10.78.47 14.55-8.81c6.12-15.03-11.38-20.58-21.92-22.33q-.53-.08-.67.43l-13.12 47.04q-.14.51.37.65l4.69 1.3q.64.18.82-.46zm400.05-3.12a.3.3 0 0 1 .53-.22l22.9 27.96a.3.3 0 0 0 .53-.14l5.89-35.75a.3.3 0 0 1 .57-.08l13.99 29.81a.3.3 0 0 0 .35.16l5.5-1.52a.3.3 0 0 0 .19-.42l-23.01-46.64a.3.3 0 0 0 -.56.09l-6.38 41.59a.3.3 0 0 1 -.53.14l-26.34-32.76a.3.3 0 0 0 -.54.21l3.49 51.79a.3.3 0 0 0 .37.28l5.49-1.34a.3.3 0 0 0 .23-.32zm-354.933-15.91a.31.31 0 0 0 -.228-.375l-5.307-1.284a.31.31 0 0 0 -.375.228l-11.644 48.132a.31.31 0 0 0 .229.374l5.306 1.284a.31.31 0 0 0 .375-.228l11.644-48.132m5.903 6.251a.51.51 0 0 0 .4.59l10.87 2.19a.51.51 0 0 1 .39.6l-8.96 42.9a.51.51 0 0 0 .4.6l5.01.99a.51.51 0 0 0 .6-.39l8.89-42.8a.51.51 0 0 1 .6-.4l11.02 2.3a.51.51 0 0 0 .61-.41l.76-4.33a.51.51 0 0 0 -.4-.59l-28.79-6.06a.51.51 0 0 0 -.6.41zm325.84 35.25a.33.33 0 0 1 .33.13l7.77 10.98a.33.33 0 0 0 .32.14l5.87-1a.33.33 0 0 0 .21-.52l-33.02-45.7a.33.33 0 0 0 -.58.12l-13.76 54.56a.33.33 0 0 0 .37.41l5.72-1.04a.33.33 0 0 0 .26-.25l3.28-13.11a.33.33 0 0 1 .26-.24zm-264.14 8.98a.39.39 0 0 1 .32.28l3.71 12.93a.39.39 0 0 0 .32.28l5.71.85a.39.39 0 0 0 .43-.5l-15.81-53.76a.39.39 0 0 0 -.7-.1l-31.06 46.62a.39.39 0 0 0 .26.6l5.61.94a.39.39 0 0 0 .39-.17l7.32-11.24a.39.39 0 0 1 .39-.17zm28.79-21.2 34.3 41.65a.24.24 0 0 0 .42-.13l4.2-50.81q.05-.59-.54-.63l-5.08-.35q-.48-.03-.52.45l-2.96 35.78q-.08.95-.69.22l-34.19-41.17a.4.4 0 0 0 -.7.16q-.07.31.07.55.14.25.11.54l-4.12 49.79q-.05.58.54.62l4.94.34q.61.04.66-.57l2.99-36.26q.06-.79.57-.18m176.6 33.91c28.15-9.19 20.47-49.59-9.69-48.23q-7.36.34-14.66 1.7-.47.09-.41.56l6.15 48.6q.08.56.64.5c5.96-.66 12.42-1.32 17.97-3.13m-72.43-30.19a.34.34 0 0 1 .57-.27l39.52 36.33a.34.34 0 0 0 .57-.27l-2.91-50.77a.34.34 0 0 0 -.35-.32l-5.48.11a.34.34 0 0 0 -.33.36l2.09 36.27a.34.34 0 0 1 -.57.27l-39.52-36.04a.34.34 0 0 0 -.57.27l2.95 51.09a.34.34 0 0 0 .36.32l5.44-.35a.34.34 0 0 0 .32-.36zm-48.6 24.64a.33.33 0 0 1 .3-.19l23.42.38a.33.33 0 0 1 .3.19l5.56 12.32a.33.33 0 0 0 .3.19h5.83a.33.33 0 0 0 .3-.47l-23.2-51.29a.33.33 0 0 0 -.6 0l-24.41 50.8a.33.33 0 0 0 .3.48l5.84-.06a.33.33 0 0 0 .3-.19z"/><path d="m242.29 1037.01a.3.3 0 0 0 .1.49l16.1 6.34a.3.3 0 0 0 .41-.29l-.82-21.52a.3.3 0 0 0 -.51-.2zm923.83 9.59a.39.39 0 0 0 .53.38l15.77-6.12a.39.39 0 0 0 .13-.64l-14.92-15.1a.39.39 0 0 0 -.67.26zm-850.28 17.39a.39.39 0 0 0 .16.64l16.2 5.58a.39.39 0 0 0 .51-.41l-1.78-21.14a.39.39 0 0 0 -.67-.23zm82.04 78.54a.3.3 0 0 0 .09.49l16.25 6.84a.3.3 0 0 0 .42-.29l-.47-21.63a.3.3 0 0 0 -.51-.21zm565.97 28.18a.34.34 0 0 0 .45.35l16.52-5.78a.34.34 0 0 0 .14-.56l-14.72-15.53a.34.34 0 0 0 -.58.21zm-461.79 1.27c5.13 2.39 13.96 2.83 16.75-2.89 4.46-9.13-4.37-13.1-11.28-14.84a.75.74-75 0 0 -.89.52l-4.77 16.8q-.08.28.19.41m353.3 26.55a.32.32 0 0 0 .37.39l17.24-3.32a.32.32 0 0 0 .2-.5l-12.34-17.65a.32.32 0 0 0 -.57.11zm-262.19 1.85a.39.39 0 0 0 .27.59l17.15 2.63a.39.39 0 0 0 .44-.49l-5.63-20.6a.39.39 0 0 0 -.7-.11zm236.06 1.17c2.34-17.83-13.69-24.18-28.52-21.23q-.57.11-.5.68l4.74 37.49q.06.51.57.47c10.9-.74 22.1-5.12 23.71-17.41m-129.11 8.89a.32.32 0 0 0 .29.46l17.47.21a.32.32 0 0 0 .3-.45l-8.5-19.71a.32.32 0 0 0 -.58 0zm76.83 100.73c-1.61 6.59.93 16.31 8.4 18.25q.5.14.49-.39-.15-8.76-.11-17.53c.03-9.25-7.07-7.37-8.78-.33m-614.25 14.15c1.56 4.12 5.19 8.72 9.88 9.54q.56.1.98-.28 6.35-5.67 6.66-13.87c.61-15.99-22.86-9.52-17.52 4.61m284.66 20.36c-6.16-6.72-14.29-9.82-23.36-7.63-7.12 1.71-23.32 10.96-15.1 20.31 10.25 11.69 31.91-1.58 40.01-10.35q.34-.36.09-.79c-.39-.68-1.26-1.13-1.64-1.54m-181.92 29.86a7.86 7.86 0 0 0 -7.86-7.86 7.86 7.86 0 0 0 -7.86 7.86 7.86 7.86 0 0 0 7.86 7.86 7.86 7.86 0 0 0 7.86-7.86m1000.05-59.48a.31.31 0 0 0 -.31-.31h-26.12a.31.31 0 0 0 -.31.31v29.38a.31.31 0 0 0 .31.31h26.12a.31.31 0 0 0 .31-.31z"/></g><path d="m242.06 570.44c-3.19-1.19-6.68-2.37-9.32-3.84-27.83-15.45-27.37-56.31-24.08-83.37 4.25-34.85 12.97-68.88 20.81-103.04 3.82-16.64 6.38-32.67 8.41-49.17 1.48-11.93 2.48-25.4-1.47-36.76q-.17-.48.32-.61 12.42-3.22 23.92-11.27c30.87-21.59 55.7-46.01 82.42-70.81 19.68-18.26 40.31-36.01 63.41-49.84 22.65-13.57 49.99-21.46 72.3-2q.61.54.43-.25c-7.66-33.58 22.06-55.16 48.69-67.89 39.75-19.02 86.9-29.56 123.61-42.55q12.19-4.31 38.29-15.49 15.67-6.71 25.98-16.89.34-.32.66.01c9.48 9.6 18.74 13.89 32.85 20.05 47.17 20.57 97.88 30.2 145.25 50.41 28.53 12.17 67.02 35.04 58.37 72.31a.26.26 0 0 0 .44.25c33.15-31.87 82.95 5.44 108.97 27.51q27.81 23.59 54.12 48.86 22.41 21.53 53.07 43.91 12.98 9.48 26.28 12.95.47.12.31.58c-4.55 13.57-2.47 27.19-.76 41.85 5.54 47.31 21.7 93.93 27.59 139.71 4.11 31.92 7.52 82.49-32.48 94.61a.24.24 0 0 0 0 .46c32.46 8.97 36.6 44.9 34.89 72.94-2.36 38.49-12.33 76.28-21.11 113.67q-6 25.57-9.78 60.44-1.76 16.27 1.87 29.39.12.45-.33.56-10.97 2.54-20.28 8.84-28.07 19-48.79 38.44c-24 22.51-47.76 45.5-73.53 65.99-16.64 13.22-35.92 25.5-56.31 30.66q-23.91 6.04-42.91-10.21-.55-.48-.39.23c6.19 27.11-11.84 46.36-33.1 59.11-52.66 31.59-113.59 38.9-168.34 62.7-15.41 6.7-25.07 10.9-35.24 21.22q-.38.39-.74-.01-7.47-8.27-15.66-12.31-30.93-15.23-58.44-23.59c-36.31-11.03-73.05-21.21-107.8-36.66-27.73-12.33-62.59-34.36-54.49-70.3a.3.3 0 0 0 -.5-.29c-38.72 37.56-102.43-20.72-130.42-46.25q-20.78-18.95-41.37-38.12-18.84-17.55-44.85-36.41-12.43-9-25.47-12.43-.42-.11-.31-.53 3.64-13.13 1.94-28.71c-2.37-21.68-5.13-40.26-9.73-60.25-8.9-38.66-19.35-77.53-21.45-117.31-1.44-27.28 3.87-60.65 34.22-69.83q1.01-.3.03-.67zm55.23 198.75c47.45 100.43 130.39 182.42 231.71 227.31 216.26 95.82 468.6 12.89 587.43-190.82 71.42-122.44 82.89-270.11 32.51-402.38-61.13-160.51-210.67-276.67-381.19-295.31-201.12-21.97-394.56 89.71-475.58 275.44-53.79 123.31-52.08 264.67 5.12 385.76z" fill="#a3133f"/><path d="m678.01 166.27c5.15.55 11.56 1.02 15.34-3.75q.32-.4.27-.9l-1-11.09q-.05-.53-.58-.5l-5.11.29q-.64.03-.98-.51l-4.95-7.78a.37.36-18.7 0 1 .28-.56c119.78-9.72 235.62 28.66 324.97 109.08q.39.35.03.74l-5.44 5.79q-.46.49-.96.05l-10.5-9.11q-.49-.43-.88.08l-25.83 33.05a.28.28 0 0 1 -.48-.07l-3.85-9.12q-.21-.51.13-.95l9.44-12.06q.41-.53-.13-.94l-8.7-6.64a1.36 1.35-49.9 0 0 -1.82.16l-3.55 3.9q-.32.35-.8.4c-5.81.57-5.48-17.65 1.76-17.45 3.79.1 14.97 10.3 18.48 12.99q.37.28.66-.09l7.48-9.6q.24-.31-.08-.54l-28.25-20.75q-.61-.45-1.03.19l-23.13 35.19q-.32.48-.55-.05l-4.03-9.37q-.26-.6.1-1.15l19.45-29.87q.35-.54-.2-.87l-13.31-8.1q-.53-.32-.82.23l-19.49 36.77q-.35.66-.71.01l-4.81-8.65q-.3-.55-.01-1.11l4.63-9.01q.28-.55-.26-.84l-12.46-6.56q-.49-.26-.71.25c-5.96 13.85-9.86-5.17-10.66-8.88q-.76-3.55 1.39-5.19.51-.38 1.11-.17l3.53 1.29q.51.19.76-.29l7.18-13.7q.32-.59-.3-.87l-15.85-7.15a.54.54 0 0 0 -.72.3l-14.69 39.02q-.27.73-.73.1l-5.9-8.25q-.3-.42-.12-.9l2.24-6.12a.46.46 0 0 0 -.6-.59c-22.78 8.75-35.1-30.32-11.59-30.47 8.47-.06 15.16 7.38 17.8 14.83a.25.24 46.1 0 0 .46.01l4.15-11.35a.47.46-69.8 0 0 -.26-.59q-33.48-13.3-68.79-20.52-.76-.15-.89.61l-6.88 41q-.1.61-.55.19l-7.51-6.98q-.36-.33-.28-.8l3.37-20.22q.09-.53-.43-.66c-6.82-1.67-16.58-3.94-18.07 5.67q-1.41 9.07 5.2 17.42.47.6-.21.93l-2.42 1.17q-.51.25-.85-.21c-6.04-8.36-16.12-32.26-.28-35.47 5.01-1.01 12.38.96 18.01 1.91q.56.1.65-.46l.86-5.35q.12-.76-.63-.89-18.23-3.22-36.68-4.94-.98-.1-1.03.89l-1.99 41.45a.25.25 0 0 1 -.4.19l-8.04-5.88a1.73 1.73 0 0 1 -.71-1.51l.54-9.93q.03-.5-.47-.52l-14.13-.72q-.5-.02-.59.47c-.4 2.05-.1 8.78-4.39 6q-7.19-4.66-10.73-12.41-.23-.49.01-.98 1.53-3.12 5.19-2.05.6.17.63-.45l.76-15.65q.03-.6-.57-.6l-17.7.23q-.77.01-.7.78l3.9 41q.05.6-.51.36l-8.91-3.92q-.49-.21-.54-.74l-1.17-13.04q-.05-.55-.57-.36-6.67 2.5-12.41-1.73a.4.4 0 0 0 -.58.53c5.59 9.17-.9 20.98-12.08 19.43-9.47-1.31-17.44-9.13-21.92-17.24q-.24-.44.12-.8l1.97-1.97q.36-.37.68.04c5.01 6.32 15.43 17.51 23.87 8.76q4.8-4.97.81-11.68-.21-.36-.59-.18l-8.64 4.15a1.47 1.47 0 0 1 -1.9-.58l-3.83-6.5q-.22-.38.16-.59 4.8-2.61 10.25-2.49.54.01.94-.34c3.66-3.21 4.72-10.99-.87-12.4-4.9-1.24-11.31 3.04-14.67 6.44q-.37.36-.7-.03l-4.69-5.58a.84.83 50.2 0 1 .1-1.17c9.13-7.68 19.9-7.99 27.87 1.44 4.37 5.18 2.97 9.36-.5 14.64q-.37.56.3.63zm67.851-15.637a.61.61 0 0 0 -.582-.637l-13.965-.634a.61.61 0 0 0 -.637.581l-.718 15.804a.61.61 0 0 0 .582.637l13.965.634a.61.61 0 0 0 .637-.581zm121.279 44.667c-8.19-18.88-32.38-6.19-21.02 1.39 5.88 3.92 14.71 2.1 20.75-.67q.49-.22.27-.72zm54.032 6.308a.36.36 0 0 0 -.148-.486l-12.75-6.78a.36.36 0 0 0 -.487.15l-7.7 14.48a.36.36 0 0 0 .15.486l12.75 6.78a.36.36 0 0 0 .486-.15l7.7-14.48zm-386.792-22.568q-6.57-5.46-10.88-8.31-5.63-3.74-9.73 1.66-.33.42-.76.11l-6.96-5.02q-.46-.33-.05-.72c6.71-6.32 13.09-4.71 19.53.89q6.44 5.6 12.68 11.31.4.37.9.14 19.48-8.88 39.7-15.93.52-.18.1-.54c-7.87-6.58-15.66-14.23-24.07-8.42q-.37.25-.67-.09l-5.79-6.6q-.37-.43.06-.79c4.89-4.16 14.21-1.42 18.95 1.85 3.99 2.75 12.37 8.63 13.93 13.19q.14.4.54.28l25.28-7.65a1.35 1.34-32.7 0 1 1.28.27l7.5 6.49a.31.31 0 0 1 -.11.53l-26.78 7.88q-.6.17-.38.75l3.61 9.7q.21.56.61.12c3.69-4.01 7.46-6.89 13.14-5.1 11.91 3.76 15.31 15.35 12.62 26.81q-.11.49-.6.37l-8.84-2.08q-.67-.16-.44-.81c1.53-4.23 3.17-12.76-.27-16.26-4.3-4.37-10.71 4.96-11.77 8.09q-.18.54.02 1.08l6.29 17.35q.23.64-.43.5l-9.67-1.91q-.6-.12-.81-.69l-2.35-6.53a.54.54 0 0 0 -.99-.06c-9.34 18.9-39.7-.16-25.62-15.12 5.93-6.32 13.49-3.38 20.36-.05a.36.36 0 0 0 .5-.45l-4.24-11.59a.81.8 70 0 0 -1.02-.48q-17.68 6.28-34.74 14.1a.52.52 0 0 0 -.26.71l18.64 37.24a.36.36 0 0 1 -.34.52l-9.81-.55q-.51-.03-.74-.49l-6.88-13.75a.53.53 0 0 0 -.72-.23l-10.08 5.19a1.09 1.09 0 0 0 -.53 1.35c.71 1.92 4.37 8.02-.68 7.76q-8.03-.41-12.16-6.97c-1.11-1.78-.7-4.62 1.09-5.55q9.15-4.78 18.38-9.38.53-.27.26-.8l-5.22-10.43q-.28-.58-.85-.27l-31.45 17.17a.51.5 59.2 0 0 -.18.72l22.77 35.17a.31.31 0 0 1 -.23.48l-9.75.77q-.5.04-.77-.38l-20.15-30.93a.4.4 0 0 0 -.56-.12l-9.35 6.14a.6.59 57.1 0 0 -.17.82q6.18 9.45 12.34 18.91c1.69 2.6 2.82 6.13-1.59 6.82q-8.43 1.33-15.47-2.92c-4.4-2.67.46-5.91 2.75-6.97a.6.59-29 0 0 .25-.86l-6.25-9.67q-.29-.45-.72-.13l-13.79 10.28q-.47.34-.11.8l25.56 32.54a.39.39 0 0 1 -.27.63l-9.93.76a1.54 1.52-20.9 0 1 -1.32-.58l-21.56-27.38q-.38-.48-.85-.08l-12.04 10.28a.69.69 0 0 0 -.05 1l28.28 29.82q.44.46-.18.6l-9.56 2.2q-.59.13-1.01-.3l-5.32-5.5q-.46-.48-.66.16-.56 1.88-1.13 3.54c-4.67 13.79-20.39 11.76-30.37 6.04q-.52-.3-.52.3v.7q0 .49-.32.87c-3.7 4.25-10.27 9.49-5.99 15.71 3.8 5.52 13.35 7.05 19.61 7.18q.57.02.51.59l-.26 2.56q-.05.43-.48.46c-9.12.74-36.36-.9-31.35-16.92 1.56-5 8.12-11.33 12.18-15.82q.38-.42.8-.05l2.42 2.1q.35.3.68-.01c3.62-3.26 8.39-12.1 1.27-14.3q-.46-.14-.8.2-14.77 14.72-27.87 30.97-.52.65-1.33.42l-8.27-2.34q-.66-.18-.23-.71 61.9-77.66 151.23-121.2.74-.36-.04-.62c-7.98-2.74-16.87-2.81-23.7 2.63q-.41.33-.8-.03l-6.48-5.93q-.47-.43.01-.84c7.64-6.74 23.88-.36 32.63 2.02q1 .27.21-.39zm36.81 13.15c-1.74 2.53-2.22 5.97-.1 8.34 4.27 4.79 12.84-5.98 14.69-9.77q.2-.43-.22-.63c-4.33-2.08-11.26-2.49-14.37 2.06zm-147.5 78.25q-.4.03-.47.39-.09.43.35.47c12.65 1.1 13.08 9.36 6.21 17.62q-.99 1.18.53 1.42c10.46 1.68 13.88-8.16 14.54-16.99q.04-.51-.31-.88l-10.52-11.18q-.37-.4-.77-.04-5.05 4.42-9.56 9.19z" fill="#a3133f"/><path d="m816.46 171.09c5.7-3.47 16.19.66 23.08 2.72q.5.15.37.66l-1.78 6.62a.98.98 0 0 1 -1.19.7c-5.96-1.5-13.62-5.39-17.42 2.02-2.97 5.79-.04 14.68 2.54 20.19q.28.58-.32.81l-2.45.92q-.66.25-1.02-.36c-4.42-7.67-12.85-27.56-1.81-34.28z" fill="#a3133f"/><path d="m757.72 213.34c-26.57 12.37-39.18-28.06-10.74-21.7q.52.12.76.59l2.74 5.48q.27.54-.33.54c-4.27.01-14.2-1.95-13.37 6.04.91 8.71 13.98 3.5 17.9.79q.53-.36.77.23l2.82 6.6a1.1 1.1 0 0 1 -.55 1.43zm-264.59-10.66a1.02 1.01 5.5 0 1 -1.39 1.14q-6.77-2.81-13.47-5.6c-4.67-1.94-8.83-.61-12.22 2.79q-.41.42-.89.08l-7.1-5.11q-.49-.35-.1-.81c7.8-9.09 25.22-.14 32.84 4.48q1.94 1.18 2.33 3.03z" fill="#a3133f"/><path d="m804.01 431.35c107.47 41.62 170.26 151.36 151.96 265.19a.55.54 4.3 0 1 -.54.46h-69.43q-.78 0-.17-.49c18.32-14.75 30.66-36.55 23.81-60.77-3.46-12.21-13.91-23.27-18.75-32.13-2.64-4.83-2.15-10.27.36-15.09 1.03-1.98 2.54-4.21 2.86-6.26.96-6.23-5.33-10.02-10.71-11.06q-28.73-5.54-52.43 7.84-3.54 2-2.06-1.79c3.26-8.32-.19-14.66-8.24-17.73-26.21-9.99-56.08-3.1-71.26 21.63a.66.66 0 0 1 -1.16-.05c-4.63-9.43-7.6-19.13-13.95-27.9-10.05-13.91-29.18-9.93-36.87 4.01-4.36 7.9-7.33 16.53-11.5 24.27a.33.32 42.8 0 1 -.56.02c-10.02-16.14-25.69-25.27-44.53-26.16-10.15-.48-32.8 1.26-36.44 13.51-.91 3.07.49 6.46 1.36 9.54q.54 1.93-1.22.97-23.78-13.03-51.79-8.57c-8.57 1.36-15.87 6.59-10.23 16.22q5.95 10.16-1.47 20.81c-8.86 12.73-16.52 22.22-17.77 36.37-1.88 21.19 9.13 40.09 25.56 52.34a.27.27 0 0 1 -.16.48l-68.49-.02q-.45 0-.53-.44c-18.02-110.69 40.74-217.37 143.43-261.91a.53.52-19.1 0 0 .3-.61c-7.78-32.4 4.41-61.48 24.83-86.07 13.75-16.56 26.15-31.45 36.06-49.65 6.09-11.17 9.28-21.04 9.22-33.86-.05-14.09-2.32-39.3 8.67-50.07 8.45-8.28 25.52-6 25.95 7.96q.02.5.44.78c14.62 9.72 18.53 34.03 17.64 49.89-.41 7.26-2.21 16.4-2.02 23.09.4 14.07 6.48 24.7 16.55 34.41q11.71 11.3 23.6 22.41c20.58 19.23 26.2 51.18 19.33 77.75q-.13.5.35.68zm-73.2 12.44c-3.96.22-5.49-5.29-.01-6.58 6.55-1.53 12.58-3.5 16.72-9.19 3.84-5.28 7.04-11.79 7.47-18.18.94-13.77-11.24-22.49-24.18-20.75-2.1.28-12.67 4.01-13.57-.59-1.17-5.96 7.07-6.04 10.81-7.04 6.89-1.83 11.22-5.01 12.79-12.2 2.88-13.27-1.44-25.79-6.76-37.84-8.08-18.28-17.96-36.07-17.85-56.66q.12-21.51 1.23-42.99c.12-2.38.06-6.35-.7-8.02-1.79-3.97-6.24-1.39-7.49 1.31-7.21 15.51-1.51 35.18-4.27 51.51-5.35 31.58-31.56 59.86-51.05 83.86-9.04 11.14-17.36 27.4-19.74 41.59-2.79 16.66-.39 35.9 10.61 49.36q4.6 5.64 13.13 10.73 24.48 14.59 53.21 17.1c5.85.51 12.26.17 18.43.04 3.28-.07 5.69 1.34 4.58 4.95q-.14.48-.56.77-2.63 1.86-4.36 2.1c-19.94 2.85-43.07 1.09-61.34-8.38q-.45-.24-.66.23c-9.43 20.36 52.57 20.04 60.85 19.48q12.3-.83 18.23-2.44c6.97-1.88 18.08-7.11 21.25-14.2a2.12 2.12 0 0 0 -.87-2.7c-5.11-2.99-18.25 3.69-20.18.12-5.21-9.61 24.52-5.41 21.75-20.31-2.62-14.01-27.26-15.65-37.47-15.08zm-44.42 64.09c13.17 8.53 34.2 8.85 49.68 5.49 4.58-.99 14.47-4.1 16.19-9.09q.51-1.48-.46-2.53-.35-.37-.84-.25c-21.05 5.45-45.14 5.07-66.65 1.7q-1.01-.16-.81.85.47 2.26 2.89 3.83zm23.55 19.43q8.62 5.01 16.65-.54 2.47-1.7 2.42-4.44a1.14 1.13-2.6 0 0 -1.22-1.11q-10.18.79-20.35-.01-.64-.05-.67.59-.12 3.6 3.17 5.51z" fill="#a3133f"/><path d="m987.54 282.4q4.76 1.45 9.66.49a1.07 1.06 74.2 0 0 .79-1.42c-2.14-5.77-4.22-21.99 5.06-23.38 15.01-2.23 19.7 15.91 12.26 25.73-6.93 9.14-20.11 8.19-29.97 6.01q-.51-.11-.53.41l-.37 13.12q-.01.56-.56.42l-3.17-.79q-1.61-.41-1.28-2.04l2.6-12.64q.09-.43-.23-.73c-2.62-2.45-4.64-6.41-2.61-9.8 2.92-4.87 12.17-3.74 8.1 4.01a.43.43 0 0 0 .25.61zm22.79-14.28c-1.01-3.47-4.64-2.92-6.81-1.27-3.77 2.86-3.44 10.02-2.14 14.02q.16.48.63.3c5.01-1.98 10.03-7.21 8.32-13.05z" fill="#a3133f"/><path d="m1032.95 290.99-29.66 29.46a.3.3 0 0 1 -.5-.13l-2.78-10.05a.3.3 0 0 1 .08-.29l26.51-26.02a.3.3 0 0 0 .01-.42l-6.99-7.42a.3.3 0 0 1 0-.42l6.08-6.36a.3.3 0 0 1 .44 0l16.4 17.68a.3.3 0 0 1 .07.27l-2.42 10.55a.3.3 0 0 1 -.52.13l-6.29-6.97a.3.3 0 0 0 -.43-.01z" fill="#a3133f"/><rect fill="#a3133f" height="185.26" rx=".54" transform="matrix(.88294759 .46947156 -.46947156 .88294759 883.800426 357.670102)" width="8.64" x="-4.32" y="-92.63"/><rect fill="#a3133f" height="184.54" rx=".63" transform="matrix(.8642748 -.50301995 .50301995 .8642748 540.239809 364.349746)" width="8.64" x="-4.32" y="-92.27"/><path d="m980.93 330.31q-12.99-12.43-12.78-30.67.01-.68.68-.61l2.14.21q.58.06.68.64c1.36 8.27 7.94 23.28 16.66 26.1 10.5 3.41 13.97-8.28 1.45-7.95q-.6.01-.58-.59l.26-7.35q.02-.66.68-.56 14.44 2.25 10.6 17.21c-2.51 9.73-13.72 9.38-19.79 3.57z" fill="#a3133f"/><rect fill="#a3133f" height="12" rx=".31" transform="matrix(.99999848 -.00174533 .00174533 .99999848 1037.65 310.750001)" width="11.8" x="-5.9" y="-6"/><rect fill="#a3133f" height="11.74" rx=".31" transform="matrix(.99999848 -.00174533 .00174533 .99999848 1024.62 323.63)" width="11.74" x="-5.87" y="-5.87"/><rect fill="#a3133f" height="106.9" rx=".59" transform="matrix(.9323238 .36162457 -.36162457 .9323238 833.230131 376.690172)" width="8.62" x="-4.31" y="-53.45"/><rect fill="#a3133f" height="106.3" rx=".63" transform="matrix(.91425396 -.40514159 .40514159 .91425396 589.059967 382.490124)" width="8.64" x="-4.32" y="-53.15"/><rect fill="#a3133f" height="185.16" rx=".67" transform="matrix(.73727734 .67559021 -.67559021 .73727734 953.260033 408.769892)" width="8.64" x="-4.32" y="-92.58"/><rect fill="#a3133f" height="184.24" rx=".5" transform="matrix(.72657467 -.68708751 .68708751 .72657467 478.080064 412.720149)" width="8.66" x="-4.33" y="-92.12"/><rect fill="#a3133f" height="106.96" rx=".36" transform="matrix(.81411552 .58070296 -.58070296 .81411552 899.020025 414.110241)" width="8.64" x="-4.32" y="-53.48"/><rect fill="#a3133f" height="106.06" rx=".28" transform="matrix(.8048938 -.59341889 .59341889 .8048938 532.799833 416.849898)" width="8.62" x="-4.31" y="-53.03"/><rect fill="#a3133f" height="8.64" rx=".53" transform="matrix(.84339145 -.53729961 .53729961 .84339145 1009.630079 478.279877)" width="185.2" x="-92.6" y="-4.32"/><rect fill="#a3133f" height="8.64" rx=".41" transform="matrix(.84339145 .53729961 -.53729961 .84339145 425.800105 478.270021)" width="183.96" x="-91.98" y="-4.32"/><rect fill="#a3133f" height="8.64" rx=".66" transform="matrix(.7649214 -.64412363 .64412363 .7649214 953.710432 466.820127)" width="106.92" x="-53.46" y="-4.32"/><rect fill="#a3133f" height="8.64" rx=".4" transform="matrix(.7649214 .64412363 -.64412363 .7649214 481.720061 466.810089)" width="105.76" x="-52.88" y="-4.32"/><path d="m686.39 507.88q-2.42-1.57-2.89-3.83-.2-1.01.81-.85c21.51 3.37 45.6 3.75 66.65-1.7q.49-.12.84.25.97 1.05.46 2.53c-1.72 4.99-11.61 8.1-16.19 9.09-15.48 3.36-36.51 3.04-49.68-5.49z" fill="#fff"/><rect fill="#a3133f" height="8.62" rx=".45" transform="matrix(.9055688 -.42419942 .42419942 .9055688 994.99986 534.489815)" width="106.66" x="-53.33" y="-4.31"/><rect fill="#a3133f" height="8.64" rx=".71" transform="matrix(.9055688 .42419942 -.42419942 .9055688 440.460037 534.500032)" width="105.38" x="-52.69" y="-4.32"/><path d="m709.94 527.31q-3.29-1.91-3.17-5.51.03-.64.67-.59 10.17.8 20.35.01a1.14 1.13-2.6 0 1 1.22 1.11q.05 2.74-2.42 4.44-8.03 5.55-16.65.54z" fill="#fff"/><g fill="#a3133f"><rect height="8.64" rx=".47" transform="matrix(.95371695 -.3007058 .3007058 .95371695 1046.070026 560.010089)" width="184.9" x="-92.45" y="-4.32"/><rect height="8.64" rx=".74" transform="matrix(.95371695 .3007058 -.3007058 .95371695 389.379912 560.030089)" width="183.54" x="-91.77" y="-4.32"/><path d="m746.48 703.41c-31.19 7.3-91.99 5.1-100.93-36.18-3.66-16.9 3.99-29.81 15.74-41.33 15.86-15.53 30.46-32.9 40.03-53.21 2.48-5.27 5.18-12.7 10.27-15.89 13.58-8.48 19.95 12.81 23.53 21.05 9 20.72 26.92 36.57 42.33 52.45 12.22 12.59 15.77 29.79 8.64 45.84-6.91 15.56-23.99 23.61-39.61 27.27z"/><path d="m671.96 706.09c-34.93-.89-88.87-10.9-87.14-57.63q.29-7.85 2.89-13.28c9.15-19.13 35.53-40.15 26.97-63.71q-.18-.5.28-.76c7.77-4.5 17.9-5.44 26.65-4.82 16.13 1.13 29.44 10.03 36.75 24.58q1.2 2.39 1.17 5.57-.01.48-.33.86-11.25 13.11-23.61 25.18c-10.65 10.41-18.44 22.63-17.78 37.79 1 23.02 13.47 36.89 34.23 45.88q.84.36-.08.34zm147.34-135.45a.91.9 25.1 0 1 .4 1.08c-7.09 20.16 11.62 39.51 22.63 55.44 5.34 7.73 7.74 15.39 7.5 24.95-1.07 43.75-54.01 53.07-87.37 53.98a.22.22 0 0 1 -.09-.42c11.25-4.44 21.87-11.92 27.78-22.33 8.51-14.98 9.17-33.51-.51-48.25-8.27-12.59-23.39-24.93-34.53-38.55q-.32-.39-.29-.9.18-3.05 1.58-5.7c7.79-14.81 21.24-23.34 37.79-24.14 8.11-.39 17.92.62 25.11 4.84z"/><path d="m562.55 693.22c-16.1-9.32-28.85-24.88-29.08-44.11-.2-17.24 13.13-28.7 19.73-41.65 4.48-8.77 2.51-16.39-1.3-25.17q-.25-.59.37-.71c16.96-3.36 39.77-.9 53.02 11.44a1.71 1.7 36.8 0 1 .31 2.12c-11.15 18.87-29.02 34.01-27.85 57.91 2 40.79 41.27 54.71 75.59 58.77q.18.02.08.16-.06.08-.23.08c-31.02.11-63.3-3.03-90.64-18.84zm319.64-111.73q1 .18.46 1.05c-10.91 17.59 3.18 31.91 12.16 46.13q9.33 14.76 4.41 31.83c-12.88 44.72-81.62 52.59-118.75 51.49a.08.07-46.2 0 1 0-.15c22.26-2.51 49.2-9.43 64.37-27.34 14.69-17.34 16.24-42.76 2.81-61.7q-9.14-12.88-17.97-26.02-1.93-2.88.65-4.94c14.02-11.15 34.58-13.54 51.86-10.35z"/><rect height="8.58" rx=".39" transform="matrix(.98450318 .17536673 -.17536673 .98450318 418.199969 610.570022)" width="104.96" x="-52.48" y="-4.29"/><rect height="8.58" rx=".64" transform="matrix(.98450318 -.17536673 .17536673 .98450318 1017.230005 610.55995)" width="106.46" x="-53.23" y="-4.29"/><rect height="8.56" rx=".45" transform="matrix(.99904822 .04361939 -.04361939 .99904822 375.599994 648.429996)" width="183.06" x="-91.53" y="-4.28"/><rect height="8.58" rx=".52" transform="matrix(.99904822 -.04361939 .04361939 .99904822 1059.879984 648.429996)" width="184.42" x="-92.21" y="-4.29"/><rect height="8.56" rx=".27" transform="matrix(.9963453 .08541692 -.08541692 .9963453 1019.029993 689.760041)" width="106.04" x="-53.02" y="-4.28"/><rect height="8.56" rx=".35" transform="matrix(.9963453 -.08541692 .08541692 .9963453 416.430036 689.750028)" width="104.64" x="-52.32" y="-4.28"/><path d="m479.24 725.6c-52.82.48-105.64-.19-158.49-.1q-.4 0-.54-.38l-7.2-19.89a.38.38 0 0 1 .36-.51c82.08.44 162.44-.27 243.63-.01 2.34.01 4.19-.29 6.42.8 11.66 5.71 23.92 9.65 36.34 13.57a.54.54 0 0 1 .06 1c-11.72 5.49-20.2 5.16-36.19 5.43-28.14.46-56.26-.17-84.39.09zm376.77-.39c-3.97-.06-19.33-2.22-21.67-5.51a.28.28 0 0 1 .14-.42c12.44-4.26 24.23-7.7 36.81-13.77q2.02-.98 4.24-.95c59.11.65 118.34-.19 177.47-.1 21.97.04 44 .6 66-.09q1.29-.04.85 1.17l-7.05 19.36q-.19.53-.75.53c-85.31.43-170.75 1.04-256.04-.22zm-152.07 32.97c-10.27-6.5-23.54-6-27.08-20.51-3.6-14.75 9.46-20.46 21.34-22.03 13.71-1.81 68.98-6.2 58.88 23.85-3.49 10.37-12.43 12.3-21.49 16.14q-12.52 5.31-17.92 17.93a.5.5 0 0 1 -.92-.01q-4.08-9.85-12.81-15.37z"/><path d="m636.52 750.94c-5.23-2-13.71-7.23-4.23-12.55q9.29-5.23 16.73-12.87c6.8-7 17.71-7.07 25.74-7.77q.52-.05.23.38c-7.92 11.82-7.36 21.1.81 32.72q.37.52-.19.83c-10.7 6-28.19 3.43-39.09-.74zm-59.75-14.56a.29.28-58.4 0 1 -.1-.44q.22-.29.82-.28c18.4.16 29.03-6.85 42.11-17.56q.4-.32.9-.29l23.77 1.41q.45.02.19.39c-4.88 6.65-11.74 10.01-18.04 14.54q-5.79 4.15-5.63 10.64.03 1.11-1.08 1.1-22.54-.15-42.94-9.51zm182.25 15.35a.72.72 0 0 1 -.25-1.05c7.41-10.54 9.3-21.93.76-32.35q-.45-.54.25-.51c6.9.37 14.46 1.04 20.69 3.88 4.88 2.22 7.52 6.98 11.91 10.06 2.88 2.02 14.52 8.7 14.11 12.15-.32 2.67-4.34 5.32-6.56 6.27-11.65 5.03-29.93 7.46-40.91 1.55zm30.63-32.24a.13.13 0 0 1 .09-.22l24.33-1.5q.42-.03.74.23c13.68 11.17 24.54 18.06 43.05 17.68a.3.3 0 0 1 .14.57q-20.79 9.64-43.79 9.55a.66.66 0 0 1 -.66-.7c.63-10.51-11.91-14.35-18.45-20.1q-2.84-2.49-5.45-5.51zm304.5 45.52-315.15-.04q-1.84 0-.02-.27 15.77-2.38 30.38-8.48c2.32-.98 3.3.26 5.52.24 16.6-.21 35.64-3.83 50.06-12.48q.38-.23.83-.23h238.73q.46 0 .26.4l-9.8 20.35a.9.89 12.4 0 1 -.81.51zm-739.71-.27q-7.88-.03-15.71.03-.58 0-.83-.52l-9.56-19.87q-.3-.63.39-.63h239.78q.52 0 .97.26c13.94 8.2 31.58 11.85 47.59 12.33q3.25.1 6.44-.55.49-.1.94.09 15.14 6.64 31.57 8.8 2.02.27-.02.27-150.79.25-301.56-.21zm445.81 18.6c-9.96 2.53-17.97 8.43-14.84 20.07q.16.59-.46.59h-423.33q-.56 0-.86-.48l-12.5-20.27a.33.33 0 0 1 .28-.5h451.63a.3.3 0 0 1 .08.59zm111.18 0q-.52-.08-1.12-.1-.37-.02-.13-.3c.94-1.11 158.57-.19 174.09-.19q.75 0 .36.64l-12.49 20.14a.98.96 15.3 0 1 -.83.46q-43.03.04-86.02-.01-2.19-.01-4.23-1c-21.18-10.32-45.82-16.03-69.63-19.64z"/><path d="m807.73 811.11c-5.12-1.28-17.47-7.3-14.68-14.51 2.99-7.75 33.84-9.5 40.51-9.72q41.24-1.37 81.97 5.19c9.6 1.55 87.69 16.28 72.64 36.86-9.68 13.24-36.64 21.42-52.93 25.8q-51.31 13.81-104.49 13.03c-24.75-.36-56.14-3.52-74.82-21.91-12.08-11.89.6-22.67 12.33-24.81 19.75-3.6 36.62-.54 55.42 2.04 4.77.66 10.74.62 14.23-3.15 3.14-3.38-.77-5.38-3.69-5.69-8.96-.96-17.66-.93-26.49-3.13zm-149.35 30.95c-39.91-7.94-81.76-8.25-121.64.01q-4.65.97-9.07.96-68.46-.13-136.92.05-.54 0-.88-.42l-15.51-19.74q-.56-.71.35-.71l373.62-.08a.27.27 0 0 1 .21.45q-7.7 8.63-4.37 19.91.17.58-.44.58-38.05-.14-76.01-.06-4.54.01-9.34-.95zm340.67-19.9 59.18-.1q.98 0 .38.77l-15.3 19.61q-.41.52-1.06.52l-56.78.13a.29.29 0 0 1 -.16-.53c6.98-4.87 12.43-10.83 13.07-19.77q.04-.63.67-.63z"/><path d="m550.79 909.81c-15.32-2.58-48.35-11.18-51.93-29.84-4.35-22.61 42.83-31.05 57.14-32.95q48.06-6.37 95.79 2.02c11.98 2.11 53.95 12.63 44.57 32.5-6.11 12.93-24.59 13.11-36.22 10.21q-17.1-4.26-33.92-9.53c-1.26-.39-2.4-.07-3.19.87q-.33.38-.3.89c.42 7.25 27.49 12.56 21.07 21.97-3.14 4.6-14.59 6.3-20.06 6.78q-36.66 3.2-72.95-2.92zm-122.03-27.57c-2.8 0-19.03-17.52-21.72-20.55a.26.26 0 0 1 .19-.43l88.95-.03a.28.27-68.9 0 1 .2.46q-7.5 8.57-5.84 19.99.08.56-.48.56-30.71.03-61.3 0zm403.55-6.45q54.39.44 106.82-13.61 3.68-.98 7.36-.98 39.63.07 79.28.04.84 0 .25.59l-20.13 20.11q-.31.31-.75.31h-299.42q-.58 0-.47-.58 2.34-11.38-5.27-19.94a.27.27 0 0 1 .2-.45q30.03-.1 60.15.04 2.09 0 4.01 1c20.44 10.6 45.41 13.29 67.97 13.47z"/><path d="m224.49 1080.72c-7.73 21.29-12.32 40.71-12.84 63-.07 3.24-1.45 6.06-5.06 5.53-5.87-.88-9.27-22.26-16.08-26.68-12.58-8.16-34.76 29.56-38.83 37.87-1.42 2.89-4.21 5.64-7.47 4.59-8.29-2.67-6.47-37.71-6.02-44.21 1.59-23.26 15.68-45.51 25.68-65.73q1.24-2.51 2.11-5.17.18-.53-.28-.86c-9.82-7.12-23.08-16.91-28.35-26.75-10.05-18.77.73-40.29 9.1-57.56 5.18-10.69 7.6-18.11 6.76-29-1.17-15.39-5.5-33.76 15.04-37.2 52.36-8.78 71.83 31.67 76.44 75.19q.05.48.48.69c49.03 23.76 103.25 33.71 156.17 44.64q12.32 2.55 20.62 5.68c16.96 6.39 7.05 43.43 3.2 55.55a1.8 1.79 25.6 0 0 .72 2.03c53.57 35.82 120.85 52.26 183.88 60.6q101.14 13.38 202.48 1.51c46.06-5.39 91.96-15.07 135.52-31.16 26.41-9.76 51.77-22.62 73.26-40.24q.39-.32.43-.83.1-1.07-.17-2.47c-2.44-12.26-11-43.94 6.24-50.2q7.85-2.84 15.98-4.54c53.95-11.25 110.94-21.38 160.27-45.77q.45-.23.49-.74c3.19-41.75 24.08-82.19 73.53-75.38 22.29 3.07 19.43 18.55 17.83 35.58-.99 10.6.7 18.63 5.52 28.72 10.39 21.76 24.95 49.21 2.53 69.75q-9.85 9.02-20.69 16.92a1.07 1.07 0 0 0 -.33 1.34c8.07 16.55 17.31 33.03 23.75 50.23 5.9 15.74 5.47 36.47 3.61 52.6q-.48 4.15-2.36 8.27c-2.9 6.33-8 3.68-10.41-1-5.13-9.98-22.22-38.58-34.88-39.19-8.22-.4-13.94 19.18-16.15 24.11-2.47 5.52-9.01 5.16-9.12-1.42-.38-22.91-5.63-42.61-12.69-63.35q-.17-.51-.69-.33c-41.61 14.86-85.04 22.5-125.42 41.05a.59.59 0 0 0 -.15.97c6.28 5.69 13.1 16.88 8.79 25.49q-1.5 2.98-6.18 6.52c-67.27 50.8-149.25 78.09-231.58 91.7q-102.37 16.93-205.99 10.82c-64.75-3.82-129.62-14.69-191.51-34.29-42.73-13.53-84.47-31.97-121.67-57.14-11.45-7.75-18.56-16.91-10.61-30.87 1.86-3.26 5.15-6.26 7.92-9.05a.36.36 0 0 0 -.1-.58c-39.12-17.68-76.15-23.6-122.08-39.54q-.47-.17-.64.3zm1046.05-175.01c-.02-3.37-3.39-5.43-6.43-5.32-34.16 1.29-48.63 34.32-51.52 63.53q-.04.47.38.25 24.51-13.32 43.57-33.48c5.76-6.09 14.05-16.26 14-24.98zm-1089.33 15.18c12.17 20.46 34.43 37.26 54.59 48.42q.51.28.45-.3c-2.93-27.62-14.53-58.5-46-63.29-12.93-1.97-14.85 5.42-9.04 15.17zm1071.75 77.34a.33.33 0 0 1 -.17.43l-21.77 9.29a.33.33 0 0 1 -.43-.17l-7.72-18.14a.33.33 0 0 0 -.44-.17l-4.85 2.14a.33.33 0 0 0 -.17.43l19.38 45.47a.33.33 0 0 0 .43.17l4.93-2.1a.33.33 0 0 0 .17-.43l-9.3-21.69a.33.33 0 0 1 .17-.43l21.75-9.24a.33.33 0 0 1 .43.17l9.33 21.63a.33.33 0 0 0 .43.18l4.9-2.03a.33.33 0 0 0 .18-.44l-19.46-45.61a.33.33 0 0 0 -.44-.18l-4.86 2.14a.33.33 0 0 0 -.17.43zm-1056.22 25.32a.31.31 0 0 1 -.51-.24l1.46-41.66a.31.31 0 0 0 -.55-.2l-30.85 41.6a.31.31 0 0 0 .11.46l4.93 2.42a.31.31 0 0 0 .39-.1l19.14-26.61a.31.31 0 0 1 .56.19l-.94 35.83a.31.31 0 0 0 .51.25l27.36-23.35a.31.31 0 0 1 .5.31l-8.73 31.63a.31.31 0 0 0 .16.36l4.98 2.42a.31.31 0 0 0 .43-.21l13.03-50.19a.31.31 0 0 0 -.51-.31zm987.08-12.51a.41.41 0 0 0 .54.22l10.26-4.18a.41.41 0 0 1 .54.23l16.64 40.62a.41.41 0 0 0 .54.22l4.77-2.01a.41.41 0 0 0 .22-.54l-16.67-40.57a.41.41 0 0 1 .22-.54l10.31-4.23a.41.41 0 0 0 .22-.53l-1.67-4.26a.41.41 0 0 0 -.54-.23l-26.94 11.01a.41.41 0 0 0 -.22.54zm-920.92-1.11a.38.38 0 0 0 -.64-.25l-40.06 38.85a.38.38 0 0 0 .11.62l4.96 2.18a.38.38 0 0 0 .41-.08l9.75-9.48a.38.38 0 0 1 .41-.08l21.32 8.33a.38.38 0 0 1 .24.33l.71 13.33a.38.38 0 0 0 .24.34l5.37 2.04a.38.38 0 0 0 .51-.38zm924.35 34.84a.31.31 0 0 1 .32.07l9.85 9.41a.31.31 0 0 0 .33.06l5.31-2.15a.31.31 0 0 0 .09-.51l-40.54-38.85a.31.31 0 0 0 -.53.21l-2.97 56.02a.31.31 0 0 0 .42.31l5.42-2.08a.31.31 0 0 0 .2-.27l.63-13.49a.31.31 0 0 1 .2-.27zm-905.98-21.29a.51.51 0 0 0 .31.65l10.2 3.71a.51.51 0 0 1 .31.65l-14.85 41.04a.51.51 0 0 0 .3.66l4.68 1.73a.51.51 0 0 0 .65-.3l14.83-41.11a.51.51 0 0 1 .65-.31l10.17 3.64a.51.51 0 0 0 .64-.28l1.76-4.01a.51.51 0 0 0 -.29-.69l-27.21-9.85a.51.51 0 0 0 -.65.31zm820.19 32.75a.3.3 0 0 1 .51-.26l25.03 25.71a.3.3 0 0 0 .51-.19l2.39-35.95a.3.3 0 0 1 .55-.13l16.57 28.37a.3.3 0 0 0 .37.13l5.16-1.94a.3.3 0 0 0 .15-.44l-26.92-44.41a.3.3 0 0 0 -.55.14l-2.32 41.84a.3.3 0 0 1 -.52.19l-28.87-30.25a.3.3 0 0 0 -.51.26l8.3 51.11a.3.3 0 0 0 .39.24l5.26-1.66a.3.3 0 0 0 .2-.34zm-766.16-20.18a.31.31 0 0 0 -.54-.18l-38.86 40.55a.31.31 0 0 0 .12.51l5.49 1.88a.31.31 0 0 0 .33-.08l9.17-9.77a.31.31 0 0 1 .33-.08l21.75 7.48a.31.31 0 0 1 .21.26l1.3 13.5a.31.31 0 0 0 .21.26l5.51 1.83a.31.31 0 0 0 .4-.32zm699.15 9.35-8.71 1.67q-.73.14-.59.88l3.2 16.56q.17.88.82.27c4.98-4.68 9.85-11.18 7.66-17.97a2.1 2.1 0 0 0 -2.38-1.41zm233.22 64.34c14.25 4.87 27.05 25.38 34.31 38.17q.39.7.46-.1c1.49-16.36 2.38-34.4-3.6-50.14-6.37-16.75-15.09-32.03-22.69-48.07q-.25-.54-.75-.22-20.66 13.34-43.44 22.67-.54.22-.36.78c5.49 17.17 10.43 33.46 12.44 51.52a.39.39 0 0 0 .76.08c3.57-10.04 10.83-18.81 22.87-14.69zm-860.06-55.01c-6.86 7.26 4.68 15.2 9.6 19.04q.61.47.81-.27l5.09-19.13q.15-.54-.39-.67c-3.94-.99-11.95-2.33-15.11 1.03zm-202.79 74.44c1.86-17.66 6.48-34.84 12.43-51.46a.5.5 0 0 0 -.29-.63q-23.05-9.19-43.76-22.83a.33.33 0 0 0 -.48.13q-8.72 18.07-17.78 36.05c-5.64 11.17-9.08 22.98-9.54 35.9q-.46 13.09.91 26.26.1.97.57.12c6.8-12.44 27.05-44.92 45.09-38.04 6.18 2.36 9.4 8.64 12.15 14.62a.37.37 0 0 0 .7-.12zm826.916-20.479a.43.43 0 0 0 -.58-.185l-4.638 2.395a.43.43 0 0 0 -.185.579l22.611 43.809a.43.43 0 0 0 .58.185l4.638-2.395a.43.43 0 0 0 .185-.579zm-16.676 7.869a.34.34 0 0 0 -.2.28l-2.94 24.21a.34.34 0 0 1 -.54.23l-19.68-14.31a.34.34 0 0 0 -.34-.04l-5.61 2.5a.34.34 0 0 0 -.07.59l26.08 19a.34.34 0 0 1 .11.13l8.49 19.56a.34.34 0 0 0 .45.17l4.96-2.19a.34.34 0 0 0 .17-.45l-8.55-19.54a.34.34 0 0 1 -.03-.18l3.9-31.94a.34.34 0 0 0 -.47-.36zm-637.87 36.71a.32.32 0 0 0 .08.53l5.03 2.45a.32.32 0 0 0 .35-.05l10.25-9.15a.32.32 0 0 1 .34-.05l21.48 9.03a.32.32 0 0 1 .2.29l.42 13.5a.32.32 0 0 0 .2.28l5.5 2.39a.32.32 0 0 0 .45-.31l-2.11-56.37a.32.32 0 0 0 -.54-.23zm71.05-5.41a.33.33 0 0 1 .61.13l3.2 35.82a.33.33 0 0 0 .56.2l24.78-26.08a.33.33 0 0 1 .57.27l-5.01 32.22a.33.33 0 0 0 .21.35l5.29 2a.33.33 0 0 0 .45-.26l7.16-51.3a.33.33 0 0 0 -.57-.28l-28.46 30.54a.33.33 0 0 1 -.57-.19l-3.4-41.67a.33.33 0 0 0 -.62-.14l-26.18 44.68a.33.33 0 0 0 .17.48l5.19 1.95a.33.33 0 0 0 .4-.15zm537.17 21.6a.39.39 0 0 1 .41.1l9.39 9.76a.39.39 0 0 0 .42.09l5.26-2.07a.39.39 0 0 0 .14-.64l-39.19-40.03a.39.39 0 0 0 -.67.23l-5.42 55.86a.39.39 0 0 0 .52.41l5.37-1.89a.39.39 0 0 0 .26-.33l1.28-13.41a.39.39 0 0 1 .26-.33zm-485.4 8.54a1.81 1.81 0 0 1 3.45-.11l8.4 23.71q.19.56.76.71l5.62 1.46q.78.2.5-.55l-9.02-23.94q-.22-.58.4-.55 10.78.47 14.55-8.81c6.12-15.03-11.38-20.58-21.92-22.33q-.53-.08-.67.43l-13.12 47.04q-.14.51.37.65l4.69 1.3q.64.18.82-.46zm400.05-3.12a.3.3 0 0 1 .53-.22l22.9 27.96a.3.3 0 0 0 .53-.14l5.89-35.75a.3.3 0 0 1 .57-.08l13.99 29.81a.3.3 0 0 0 .35.16l5.5-1.52a.3.3 0 0 0 .19-.42l-23.01-46.64a.3.3 0 0 0 -.56.09l-6.38 41.59a.3.3 0 0 1 -.53.14l-26.34-32.76a.3.3 0 0 0 -.54.21l3.49 51.79a.3.3 0 0 0 .37.28l5.49-1.34a.3.3 0 0 0 .23-.32zm-354.933-15.91a.31.31 0 0 0 -.228-.375l-5.307-1.284a.31.31 0 0 0 -.375.228l-11.644 48.132a.31.31 0 0 0 .229.374l5.306 1.284a.31.31 0 0 0 .375-.228l11.644-48.132zm5.903 6.25a.51.51 0 0 0 .4.59l10.87 2.19a.51.51 0 0 1 .39.6l-8.96 42.9a.51.51 0 0 0 .4.6l5.01.99a.51.51 0 0 0 .6-.39l8.89-42.8a.51.51 0 0 1 .6-.4l11.02 2.3a.51.51 0 0 0 .61-.41l.76-4.33a.51.51 0 0 0 -.4-.59l-28.79-6.06a.51.51 0 0 0 -.6.41zm325.84 35.25a.33.33 0 0 1 .33.13l7.77 10.98a.33.33 0 0 0 .32.14l5.87-1a.33.33 0 0 0 .21-.52l-33.02-45.7a.33.33 0 0 0 -.58.12l-13.76 54.56a.33.33 0 0 0 .37.41l5.72-1.04a.33.33 0 0 0 .26-.25l3.28-13.11a.33.33 0 0 1 .26-.24zm-264.14 8.98a.39.39 0 0 1 .32.28l3.71 12.93a.39.39 0 0 0 .32.28l5.71.85a.39.39 0 0 0 .43-.5l-15.81-53.76a.39.39 0 0 0 -.7-.1l-31.06 46.62a.39.39 0 0 0 .26.6l5.61.94a.39.39 0 0 0 .39-.17l7.32-11.24a.39.39 0 0 1 .39-.17zm28.79-21.2 34.3 41.65a.24.24 0 0 0 .42-.13l4.2-50.81q.05-.59-.54-.63l-5.08-.35q-.48-.03-.52.45l-2.96 35.78q-.08.95-.69.22l-34.19-41.17a.4.4 0 0 0 -.7.16q-.07.31.07.55.14.25.11.54l-4.12 49.79q-.05.58.54.62l4.94.34q.61.04.66-.57l2.99-36.26q.06-.79.57-.18zm176.6 33.91c28.15-9.19 20.47-49.59-9.69-48.23q-7.36.34-14.66 1.7-.47.09-.41.56l6.15 48.6q.08.56.64.5c5.96-.66 12.42-1.32 17.97-3.13zm-72.43-30.19a.34.34 0 0 1 .57-.27l39.52 36.33a.34.34 0 0 0 .57-.27l-2.91-50.77a.34.34 0 0 0 -.35-.32l-5.48.11a.34.34 0 0 0 -.33.36l2.09 36.27a.34.34 0 0 1 -.57.27l-39.52-36.04a.34.34 0 0 0 -.57.27l2.95 51.09a.34.34 0 0 0 .36.32l5.44-.35a.34.34 0 0 0 .32-.36zm-48.6 24.64a.33.33 0 0 1 .3-.19l23.42.38a.33.33 0 0 1 .3.19l5.56 12.32a.33.33 0 0 0 .3.19h5.83a.33.33 0 0 0 .3-.47l-23.2-51.29a.33.33 0 0 0 -.6 0l-24.41 50.8a.33.33 0 0 0 .3.48l5.84-.06a.33.33 0 0 0 .3-.19z"/><path d="m662.49 900.19q160.6.12 321.17.04a.44.44 0 0 1 .26.79l-26.88 20.15q-.44.33-.99.33l-332.27.01q-.95 0-.01-.14c11.37-1.64 33.2-5.41 28.65-22.34q-.2-.74.55-.57c3.3.76 6.17 1.73 9.52 1.73zm-213.16 1.08a.56.55 63.3 0 1 .33-1q25.81-.05 52.09-.05c.87 0 1.74.16 2.48.71 20.1 14.71 47.57 17.72 71.52 20.45q1.21.14-.01.13l-98.82-.02q-.56 0-1-.33z"/></g><path d="m507.2 940.54q-1.86-1.04.27-1.04h417.75q2.28 0 .3 1.13-17.72 10.07-37.51 18.85-2.3 1.02-4.83 1.02-126.23 0-252.43-.02-.29 0-.57.14-.34.16-.72.16-39.86-.44-79.72-.25-2.46.01-4.67-.98-19.34-8.67-37.87-19.01z" fill="#a3133f"/><path d="m1252.96 998.23-7.68-18.15a.33.33 0 0 1 .17-.43l4.86-2.14a.33.33 0 0 1 .44.18l19.46 45.61a.33.33 0 0 1 -.18.44l-4.9 2.03a.33.33 0 0 1 -.43-.18l-9.33-21.63a.33.33 0 0 0 -.43-.17l-21.75 9.24a.33.33 0 0 0 -.17.43l9.3 21.69a.33.33 0 0 1 -.17.43l-4.93 2.1a.33.33 0 0 1 -.43-.17l-19.38-45.47a.33.33 0 0 1 .17-.43l4.85-2.14a.33.33 0 0 1 .44.17l7.72 18.14a.33.33 0 0 0 .43.17l21.77-9.29a.33.33 0 0 0 .17-.43z" fill="#fff"/><path d="m598.75 979.15q-.2-.06-.01-.14c.29-.13.35-.26.71-.26h234.71a.2.2 0 0 1 .05.39q-117.74 32.94-235.46.01z" fill="#a3133f"/><path d="m196.74 1023.55 31.47-27.4a.31.31 0 0 1 .51.31l-13.03 50.19a.31.31 0 0 1 -.43.21l-4.98-2.42a.31.31 0 0 1 -.16-.36l8.73-31.63a.31.31 0 0 0 -.5-.31l-27.36 23.35a.31.31 0 0 1 -.51-.25l.94-35.83a.31.31 0 0 0 -.56-.19l-19.14 26.61a.31.31 0 0 1 -.39.1l-4.93-2.42a.31.31 0 0 1 -.11-.46l30.85-41.6a.31.31 0 0 1 .55.2l-1.46 41.66a.31.31 0 0 0 .51.24zm987.08-12.51-1.78-4.25a.41.41 0 0 1 .22-.54l26.94-11.01a.41.41 0 0 1 .54.23l1.67 4.26a.41.41 0 0 1 -.22.53l-10.31 4.23a.41.41 0 0 0 -.22.54l16.67 40.57a.41.41 0 0 1 -.22.54l-4.77 2.01a.41.41 0 0 1 -.54-.22l-16.64-40.62a.41.41 0 0 0 -.54-.23l-10.26 4.18a.41.41 0 0 1 -.54-.22zm-920.92-1.11 3.33 55.75a.38.38 0 0 1 -.51.38l-5.37-2.04a.38.38 0 0 1 -.24-.34l-.71-13.33a.38.38 0 0 0 -.24-.33l-21.32-8.33a.38.38 0 0 0 -.41.08l-9.75 9.48a.38.38 0 0 1 -.41.08l-4.96-2.18a.38.38 0 0 1 -.11-.62l40.06-38.85a.38.38 0 0 1 .64.25zm-20.61 27.08a.3.3 0 0 0 .1.49l16.1 6.34a.3.3 0 0 0 .41-.29l-.82-21.52a.3.3 0 0 0 -.51-.2zm944.96 7.76-21.27 8.46a.31.31 0 0 0 -.2.27l-.63 13.49a.31.31 0 0 1 -.2.27l-5.42 2.08a.31.31 0 0 1 -.42-.31l2.97-56.02a.31.31 0 0 1 .53-.21l40.54 38.85a.31.31 0 0 1 -.09.51l-5.31 2.15a.31.31 0 0 1 -.33-.06l-9.85-9.41a.31.31 0 0 0 -.32-.07zm-21.13 1.83a.39.39 0 0 0 .53.38l15.77-6.12a.39.39 0 0 0 .13-.64l-14.92-15.1a.39.39 0 0 0 -.67.26zm-884.85-23.12 1.5-4.16a.51.51 0 0 1 .65-.31l27.21 9.85a.51.51 0 0 1 .29.69l-1.76 4.01a.51.51 0 0 1 -.64.28l-10.17-3.64a.51.51 0 0 0 -.65.31l-14.83 41.11a.51.51 0 0 1 -.65.3l-4.68-1.73a.51.51 0 0 1 -.3-.66l14.85-41.04a.51.51 0 0 0 -.31-.65l-10.2-3.71a.51.51 0 0 1 -.31-.65z" fill="#fff"/><path d="m242.29 1037.01 15.28-15.18a.3.3 0 0 1 .51.2l.82 21.52a.3.3 0 0 1 -.41.29l-16.1-6.34a.3.3 0 0 1 -.1-.49zm923.83 9.59.84-21.22a.39.39 0 0 1 .67-.26l14.92 15.1a.39.39 0 0 1 -.13.64l-15.77 6.12a.39.39 0 0 1 -.53-.38z" fill="#a3133f"/><path d="m1101.46 1056.23 5.7 32.42a.3.3 0 0 1 -.2.34l-5.26 1.66a.3.3 0 0 1 -.39-.24l-8.3-51.11a.3.3 0 0 1 .51-.26l28.87 30.25a.3.3 0 0 0 .52-.19l2.32-41.84a.3.3 0 0 1 .55-.14l26.92 44.41a.3.3 0 0 1 -.15.44l-5.16 1.94a.3.3 0 0 1 -.37-.13l-16.57-28.37a.3.3 0 0 0 -.55.13l-2.39 35.95a.3.3 0 0 1 -.51.19l-25.03-25.71a.3.3 0 0 0 -.51.26zm-766.16-20.18 5.42 55.84a.31.31 0 0 1 -.4.32l-5.51-1.83a.31.31 0 0 1 -.21-.26l-1.3-13.5a.31.31 0 0 0 -.21-.26l-21.75-7.48a.31.31 0 0 0 -.33.08l-9.17 9.77a.31.31 0 0 1 -.33.08l-5.49-1.88a.31.31 0 0 1 -.12-.51l38.86-40.55a.31.31 0 0 1 .54.18zm-19.46 27.94a.39.39 0 0 0 .16.64l16.2 5.58a.39.39 0 0 0 .51-.41l-1.78-21.14a.39.39 0 0 0 -.67-.23zm718.61-18.59a2.1 2.1 0 0 1 2.38 1.41c2.19 6.79-2.68 13.29-7.66 17.97q-.65.61-.82-.27l-3.2-16.56q-.14-.74.59-.88z" fill="#fff"/><path d="m315.84 1063.99 14.42-15.56a.39.39 0 0 1 .67.23l1.78 21.14a.39.39 0 0 1 -.51.41l-16.2-5.58a.39.39 0 0 1 -.16-.64z" fill="#a3133f"/><path d="m1267.67 1109.74c-12.04-4.12-19.3 4.65-22.87 14.69a.39.39 0 0 1 -.76-.08c-2.01-18.06-6.95-34.35-12.44-51.52q-.18-.56.36-.78 22.78-9.33 43.44-22.67.5-.32.75.22c7.6 16.04 16.32 31.32 22.69 48.07 5.98 15.74 5.09 33.78 3.6 50.14q-.07.8-.46.1c-7.26-12.79-20.06-33.3-34.31-38.17zm-850.46-35.97c-4.92-3.84-16.46-11.78-9.6-19.04 3.16-3.36 11.17-2.02 15.11-1.03q.54.13.39.67l-5.09 19.13q-.2.74-.81.27zm-212.39 55.4a.37.37 0 0 1 -.7.12c-2.75-5.98-5.97-12.26-12.15-14.62-18.04-6.88-38.29 25.6-45.09 38.04q-.47.85-.57-.12-1.37-13.17-.91-26.26c.46-12.92 3.9-24.73 9.54-35.9q9.06-17.98 17.78-36.05a.33.33 0 0 1 .48-.13q20.71 13.64 43.76 22.83a.5.5 0 0 1 .29.63c-5.95 16.62-10.57 33.8-12.43 51.46z" fill="#fff"/><rect fill="#fff" height="50.16" rx=".43" transform="matrix(.88861723 -.45864955 .45864955 .88861723 1040.340095 1131.989982)" width="6.08" x="-3.04" y="-25.08"/><path d="m1015.06 1116.56 5.73-2.34a.34.34 0 0 1 .47.36l-3.9 31.94a.34.34 0 0 0 .03.18l8.55 19.54a.34.34 0 0 1 -.17.45l-4.96 2.19a.34.34 0 0 1 -.45-.17l-8.49-19.56a.34.34 0 0 0 -.11-.13l-26.08-19a.34.34 0 0 1 .07-.59l5.61-2.5a.34.34 0 0 1 .34.04l19.68 14.31a.34.34 0 0 0 .54-.23l2.94-24.21a.34.34 0 0 1 .2-.28zm-637.87 36.71 41.65-37.69a.32.32 0 0 1 .54.23l2.11 56.37a.32.32 0 0 1 -.45.31l-5.5-2.39a.32.32 0 0 1 -.2-.28l-.42-13.5a.32.32 0 0 0 -.2-.29l-21.48-9.03a.32.32 0 0 0 -.34.05l-10.25 9.15a.32.32 0 0 1 -.35.05l-5.03-2.45a.32.32 0 0 1 -.08-.53zm20.69-10.74a.3.3 0 0 0 .09.49l16.25 6.84a.3.3 0 0 0 .42-.29l-.47-21.63a.3.3 0 0 0 -.51-.21z" fill="#fff"/><path d="m397.88 1142.53 15.78-14.8a.3.3 0 0 1 .51.21l.47 21.63a.3.3 0 0 1 -.42.29l-16.25-6.84a.3.3 0 0 1 -.09-.49z" fill="#a3133f"/><path d="m448.24 1147.86-16.22 28.57a.33.33 0 0 1 -.4.15l-5.19-1.95a.33.33 0 0 1 -.17-.48l26.18-44.68a.33.33 0 0 1 .62.14l3.4 41.67a.33.33 0 0 0 .57.19l28.46-30.54a.33.33 0 0 1 .57.28l-7.16 51.3a.33.33 0 0 1 -.45.26l-5.29-2a.33.33 0 0 1 -.21-.35l5.01-32.22a.33.33 0 0 0 -.57-.27l-24.78 26.08a.33.33 0 0 1 -.56-.2l-3.2-35.82a.33.33 0 0 0 -.61-.13zm537.17 21.6-21.97 7.75a.39.39 0 0 0 -.26.33l-1.28 13.41a.39.39 0 0 1 -.26.33l-5.37 1.89a.39.39 0 0 1 -.52-.41l5.42-55.86a.39.39 0 0 1 .67-.23l39.19 40.03a.39.39 0 0 1 -.14.64l-5.26 2.07a.39.39 0 0 1 -.42-.09l-9.39-9.76a.39.39 0 0 0 -.41-.1zm-21.56 1.25a.34.34 0 0 0 .45.35l16.52-5.78a.34.34 0 0 0 .14-.56l-14.72-15.53a.34.34 0 0 0 -.58.21zm-463.84 7.29-5.17 18.55q-.18.64-.82.46l-4.69-1.3q-.51-.14-.37-.65l13.12-47.04q.14-.51.67-.43c10.54 1.75 28.04 7.3 21.92 22.33q-3.77 9.28-14.55 8.81-.62-.03-.4.55l9.02 23.94q.28.75-.5.55l-5.62-1.46q-.57-.15-.76-.71l-8.4-23.71a1.81 1.81 0 0 0 -3.45.11zm2.05-6.02c5.13 2.39 13.96 2.83 16.75-2.89 4.46-9.13-4.37-13.1-11.28-14.84a.75.74-75 0 0 -.89.52l-4.77 16.8q-.08.28.19.41zm398 2.9 2.67 32.84a.3.3 0 0 1 -.23.32l-5.49 1.34a.3.3 0 0 1 -.37-.28l-3.49-51.79a.3.3 0 0 1 .54-.21l26.34 32.76a.3.3 0 0 0 .53-.14l6.38-41.59a.3.3 0 0 1 .56-.09l23.01 46.64a.3.3 0 0 1 -.19.42l-5.5 1.52a.3.3 0 0 1 -.35-.16l-13.99-29.81a.3.3 0 0 0 -.57.08l-5.89 35.75a.3.3 0 0 1 -.53.14l-22.9-27.96a.3.3 0 0 0 -.53.22z" fill="#fff"/><path d="m963.85 1170.71 1.81-21.31a.34.34 0 0 1 .58-.21l14.72 15.53a.34.34 0 0 1 -.14.56l-16.52 5.78a.34.34 0 0 1 -.45-.35zm-445.04-1.62c-2.79 5.72-11.62 5.28-16.75 2.89q-.27-.13-.19-.41l4.77-16.8a.75.74-75 0 1 .89-.52c6.91 1.74 15.74 5.71 11.28 14.84z" fill="#a3133f"/><rect fill="#fff" height="50.14" rx=".31" transform="matrix(.971961 .23514211 -.23514211 .971961 536.349965 1182.320069)" width="6.08" x="-3.04" y="-25.07"/><path d="m551.03 1165.22.8-4.4a.51.51 0 0 1 .6-.41l28.79 6.06a.51.51 0 0 1 .4.59l-.76 4.33a.51.51 0 0 1 -.61.41l-11.02-2.3a.51.51 0 0 0 -.6.4l-8.89 42.8a.51.51 0 0 1 -.6.39l-5.01-.99a.51.51 0 0 1 -.4-.6l8.96-42.9a.51.51 0 0 0 -.39-.6l-10.87-2.19a.51.51 0 0 1 -.4-.59zm325.84 35.25-22.97 4.48a.33.33 0 0 0 -.26.24l-3.28 13.11a.33.33 0 0 1 -.26.25l-5.72 1.04a.33.33 0 0 1 -.37-.41l13.76-54.56a.33.33 0 0 1 .58-.12l33.02 45.7a.33.33 0 0 1 -.21.52l-5.87 1a.33.33 0 0 1 -.32-.14l-7.77-10.98a.33.33 0 0 0 -.33-.13zm-21.51-1.94a.32.32 0 0 0 .37.39l17.24-3.32a.32.32 0 0 0 .2-.5l-12.34-17.65a.32.32 0 0 0 -.57.11zm-242.63 10.92-23.11-3.44a.39.39 0 0 0 -.39.17l-7.32 11.24a.39.39 0 0 1 -.39.17l-5.61-.94a.39.39 0 0 1 -.26-.6l31.06-46.62a.39.39 0 0 1 .7.1l15.81 53.76a.39.39 0 0 1 -.43.5l-5.71-.85a.39.39 0 0 1 -.32-.28l-3.71-12.93a.39.39 0 0 0 -.32-.28zm-19.56-9.07a.39.39 0 0 0 .27.59l17.15 2.63a.39.39 0 0 0 .44-.49l-5.63-20.6a.39.39 0 0 0 -.7-.11zm47.78-11.95-2.99 36.26q-.05.61-.66.57l-4.94-.34q-.59-.04-.54-.62l4.12-49.79q.03-.29-.11-.54-.14-.24-.07-.55a.4.4 0 0 1 .7-.16l34.19 41.17q.61.73.69-.22l2.96-35.78q.04-.48.52-.45l5.08.35q.59.04.54.63l-4.2 50.81a.24.24 0 0 1 -.42.13l-34.3-41.65q-.51-.61-.57.18zm167.48-14.5c30.16-1.36 37.84 39.04 9.69 48.23-5.55 1.81-12.01 2.47-17.97 3.13q-.56.06-.64-.5l-6.15-48.6q-.06-.47.41-.56 7.3-1.36 14.66-1.7zm20.8 27.62c2.34-17.83-13.69-24.18-28.52-21.23q-.57.11-.5.68l4.74 37.49q.06.51.57.47c10.9-.74 22.1-5.12 23.71-17.41zm-83.54-9.58 2.09 36.64a.34.34 0 0 1 -.32.36l-5.44.35a.34.34 0 0 1 -.36-.32l-2.95-51.09a.34.34 0 0 1 .57-.27l39.52 36.04a.34.34 0 0 0 .57-.27l-2.09-36.27a.34.34 0 0 1 .33-.36l5.48-.11a.34.34 0 0 1 .35.32l2.91 50.77a.34.34 0 0 1 -.57.27l-39.52-36.33a.34.34 0 0 0 -.57.27z" fill="#fff"/><path d="m855.36 1198.53 4.9-20.97a.32.32 0 0 1 .57-.11l12.34 17.65a.32.32 0 0 1 -.2.5l-17.24 3.32a.32.32 0 0 1 -.37-.39z" fill="#a3133f"/><path d="m697.09 1216.61-5.76 12.16a.33.33 0 0 1 -.3.19l-5.84.06a.33.33 0 0 1 -.3-.48l24.41-50.8a.33.33 0 0 1 .6 0l23.2 51.29a.33.33 0 0 1 -.3.47h-5.83a.33.33 0 0 1 -.3-.19l-5.56-12.32a.33.33 0 0 0 -.3-.19l-23.42-.38a.33.33 0 0 0 -.3.19zm3.03-6.17a.32.32 0 0 0 .29.46l17.47.21a.32.32 0 0 0 .3-.45l-8.5-19.71a.32.32 0 0 0 -.58 0z" fill="#fff"/><path d="m800.71 1180.32c14.83-2.95 30.86 3.4 28.52 21.23-1.61 12.29-12.81 16.67-23.71 17.41q-.51.04-.57-.47l-4.74-37.49q-.07-.57.5-.68zm-207.54 20.06 11.53-17.98a.39.39 0 0 1 .7.11l5.63 20.6a.39.39 0 0 1 -.44.49l-17.15-2.63a.39.39 0 0 1 -.27-.59zm106.95 10.06 8.98-19.49a.32.32 0 0 1 .58 0l8.5 19.71a.32.32 0 0 1 -.3.45l-17.47-.21a.32.32 0 0 1 -.29-.46zm59.92 105.27-21.13.06q-.57 0-.58.57l-.34 10.75q-.02.62.54.88 7.44 3.53 10.6 11.37c6.88 17.11-3.41 33.8-15.28 45.74q-.35.35-.71.01l-12.8-11.91a.44.44 0 0 1 .07-.69c8-5.12 19.93-15.9 21.04-25.92.79-7.24-6.94-9.6-12.8-7.68-8.97 2.94-15.32 18.15-17.24 26.5q-.12.52-.6.31l-13.59-6.02a.66.65-66.4 0 1 -.33-.86l5.75-13q.28-.63-.13-1.18c-5.48-7.35-14.29-7.58-19.42.03-9.32 13.83 6.86 30.22 16.27 38.51q.51.45.06.96l-3.82 4.41q-.37.43-.84.11-14.84-10.27-24.58-24.59c-8.34-12.26-7.77-28.25 6.65-35.53 11.57-5.85 21.59.56 29.57 9.72q.45.51.82-.05 5.23-8.07 14.19-11.43.48-.18.47-.68l-.19-9.76q-.01-.59-.6-.59h-63.88q-.64 0-.96-.57l-7.45-13.34q-.34-.59.35-.59h102.97q.56 0 .84.49l6.57 11.76q.66 1.18.57-.16-.66-9.24 5.18-14.28c13.25-11.43 33.19 3.25 36.42 17.18q.5 2.17.52 6.18.04 11.4.03 22.81 0 .61.6.61l23.57.07q.58 0 .58-.58v-29.06q0-.47-.48-.48l-16.84-.16q-.57-.01-.88-.5l-8.3-13.24q-.4-.64.35-.64h111.67a.47.47 0 0 0 .37-.75q-6.83-9.02-13.65-18.05c-6.05-8-12.61-10.99-22.71-8.02a.56.56 0 0 1 -.66-.3l-6.86-14.63a.4.39-20.8 0 1 .25-.55c11.16-3.48 21.91 2.75 28.85 10.69 5.56 6.37 20.12 24.22 17.99 31.08q-.16.53.4.53h15.54q.54 0 .8.47l7.69 13.53a.34.34 0 0 1 -.3.51l-15.22-.04q-.51 0-.51.51v74.02q0 .67-.55.3l-15.25-10.17q-.45-.3-.45-.83v-36.55q0-.51-.51-.5c-6.49.02-15.5-.91-20.79 1.24-7.65 3.1-9.79 10.36-8.49 18.28 1.61 9.8 6.49 17.63 13.55 24.64q.44.44-.08.8l-4.52 3.12q-.47.32-.86-.08c-10.62-10.87-20.22-25.77-21.92-41.18-1.29-11.68 7.29-21.09 18.94-21.24q12.08-.16 24.15-.05a.53.53 0 0 0 .53-.53v-11.25q0-.5-.5-.5h-64q-.5 0-.5.5v73.99q0 .59-.52.31l-15.24-8.37q-.49-.27-.49-.83v-20.35q0-.5-.5-.5h-23.79q-.63 0-.58.63c.41 5.44-.09 12.8-6.88 11.63-6.25-1.08-28.5-19.55-18.33-25.81 2.2-1.35 5.85-.98 8.66-1.27q.42-.05.42-.47v-8.21a.85.85 0 0 0 -.68-.83c-10.61-2.06-21.71-9.02-24.72-20.04q-.12-.42-.56-.42zm16.91-4.54c-1.61 6.59.93 16.31 8.4 18.25q.5.14.49-.39-.15-8.76-.11-17.53c.03-9.25-7.07-7.37-8.78-.33zm-446.52 76.4 12.92 21.53q.29.48-.22.71l-9.05 4.08q-.53.24-.77-.29l-6.46-13.69a.38.38 0 0 0 -.69-.01c-5.24 10.74-13.9 18.81-26.54 17.63-9.25-.86-25.17-7.3-24.6-18.94q.03-.6-.57-.62c-12.65-.39-34.52-6.7-33.97-22.81.3-8.89 7.68-15.44 16.42-15.76 17.32-.65 21.69 22.08 7.07 29.39a.4.4 0 0 0 .04.73q5.54 1.97 11.43 2 .58 0 .86-.51 2.69-4.89 8.07-6.3c1.97-.52 12.69 6.98 15.03 8.51a.34.34 0 0 1 -.11.61c-19.13 4.38-7.46 25.69 6.54 11.93q7.52-7.39 10.3-17.78.12-.46-.32-.29c-16.91 6.34-40.19-20.4-40.41-35.73-.15-9.96 6.11-19.57 15.51-22.66 6.76-2.23 17.84-1.3 26.06-1.3q.53 0 .53-.54v-11.08a.63.62 90 0 0 -.62-.63l-94.63-.01q-.5 0-.5.51v74q0 .66-.58.34l-15.22-8.42q-.45-.25-.45-.76v-19.41a.33.32-17.5 0 0 -.51-.26l-38.52 26.25a.56.56 0 0 1 -.67-.04l-11-9.42q-.42-.35.05-.64l40.94-25.38q.48-.29-.03-.54l-12.85-6.3q-.53-.26-1.02.09-15.26 11.02-32.38 18.87-.46.21-.85-.12l-11.94-10.2a.27.27 0 0 1 .07-.45q14.66-6.46 28.55-14.45a.48.47 43.2 0 0 -.03-.84c-7.26-3.61-14.33-8.7-17.93-16.11-4.64-9.53.15-18.94 9.67-22.93q10.91-4.57 20.49 2.17c12.45 8.76 21.43 24.13 10.8 38.48q-.35.47.18.71l16.27 7.3q.71.32.71-.46v-31.44q0-.46-.46-.49l-2.71-.16q-.55-.03-.84-.5l-8.25-13.26q-.4-.63.35-.63h400.16q.41 0 .62.36l7.63 13.49a.44.44 0 0 1 -.38.66l-14.73-.04q-.9 0-.89.89l.01 73.62q0 .53-.46.28l-15.35-8.35q-.45-.24-.45-.75v-27.43q0-.64-.64-.66-9.16-.27-18.1.07c-6.92.27-2.67 8.76-5.03 12.45-5.82 9.1-28.34-20.38-15.16-26.31q1.67-.75 5.58-.76 16.48-.04 32.99-.01a.36.35 0 0 0 .36-.35v-22.03q0-.63-.62-.63h-59.87q-.63 0-.63.62l-.17 73.89q-.01.57-.48.26l-15.3-10.21q-.43-.29-.43-.81v-63.25q0-.5-.5-.5h-26.25q-.5 0-.5.5v74.01q0 .65-.54.29l-15.26-10.17q-.45-.3-.45-.83v-12.8q0-.9-.64-.27c-8.74 8.7-21.21 12.04-32.41 5.83-14.17-7.85-30.48-28.36-13.22-42.96 14.7-12.43 34.97-3.23 45.62 9.4a.37.37 0 0 0 .65-.24v-22.26q0-.49-.5-.49l-72.11-.02a.63.62-89.5 0 0 -.62.62l-.25 73.88q0 .6-.51.27l-15.19-10.02q-.52-.34-.52-.96l-.07-63.04a.74.74 0 0 0 -.74-.74h-24q-.5 0-.5.51l.04 25.78q0 .44-.44.44-14.73.05-29.32.04c-9.57-.01-15.55 9.38-15.02 18.22.76 12.83 13.49 23.96 26.11 16.77a.55.54-31.5 0 0 .19-.77c-2.96-4.65-3.77-11.03 1.56-14.4 16.42-10.38 30.01 20.23 13.84 24.56q-.58.16-.27.67zm-167.73-62.25c1.56 4.12 5.19 8.72 9.88 9.54q.56.1.98-.28 6.35-5.67 6.66-13.87c.61-15.99-22.86-9.52-17.52 4.61zm284.66 20.36c-6.16-6.72-14.29-9.82-23.36-7.63-7.12 1.71-23.32 10.96-15.1 20.31 10.25 11.69 31.91-1.58 40.01-10.35q.34-.36.09-.79c-.39-.68-1.26-1.13-1.64-1.54zm-181.92 29.86a7.86 7.86 0 0 0 -7.86-7.86 7.86 7.86 0 0 0 -7.86 7.86 7.86 7.86 0 0 0 7.86 7.86 7.86 7.86 0 0 0 7.86-7.86zm753.89 9.06c-8.11-.38-20.04-5.62-17.95-15.74 2.13-10.32 12.04-7.34 16.82-.99q.31.42.82.28c6.02-1.67 11.98-5.33 10.27-12.73-2.72-11.76-13.15-18.37-23.97-21.63q-.67-.2-.36-.83l2.14-4.46q.24-.5.8-.5h48.19a.41.41 0 0 0 .41-.4v-11.35a.5.5 0 0 0 -.5-.5h-60.48q-.43 0-.64-.38l-7.81-13.77a.24.23-14.6 0 1 .21-.35h302.03q.54 0 .81.47l7.5 13.42q.34.61-.36.61h-15.02q-.5 0-.5.51l.04 73.99a.34.33 16.9 0 1 -.52.27l-15.32-10.11q-.44-.29-.44-.82v-18.59a.5.5 0 0 0 -.5-.5h-25.75q-.5 0-.5.5c.01 3.84 1.09 11.93-4.04 11.79q-1.75-.04-2.91-.82c-4.24-2.82-24.62-18.95-17.32-24.89 2.02-1.64 4.79-1.02 7.35-1.09q.67-.02.67-.7v-29.04q0-.5-.5-.5h-27.56q-.57 0-.57.57l-.12 73.91q0 .56-.49.29l-15.34-8.42q-.44-.24-.44-.74l.05-27.64a.43.42-90 0 0 -.42-.43q-8.86-.15-17.93.06c-5.69.12-4.8 6.76-4.62 11.26q.02.52-.32.92c-8.23 9.75-33.43-26.8-9.75-26.79q16.27.02 32.51.01a.5.5 0 0 0 .5-.5v-22q0-.5-.5-.5h-59.84q-.66 0-.66.66l-.15 74.06a.21.2-72.5 0 1 -.32.17l-15.33-10.15q-.42-.28-.42-.79l-.35-63.52q0-.43-.43-.43h-26.25q-.5 0-.5.5v73.99q0 .63-.55.33l-15.26-8.44q-.44-.24-.44-.75v-38.38q0-.49-.5-.49l-26.78-.03q-.84 0-.17.5c14.98 11.25 21.43 35.43-3.77 40.56q-.62.13-.26.65l13.55 19.47q.41.59-.22.93l-7.18 3.86q-.55.3-.81-.27l-10.19-23.01q-.25-.54-.84-.57zm246.16-68.54a.31.31 0 0 0 -.31-.31h-26.12a.31.31 0 0 0 -.31.31v29.38a.31.31 0 0 0 .31.31h26.12a.31.31 0 0 0 .31-.31z" fill="#a3133f"/><circle cx="257.58" cy="1375.54" fill="#fff" r="7.86"/><path d="m583.54 1407.96c-4.65-3.95-10.43-3.05-14.86.46q-.57.45-.96-.16l-5.72-9.02q-.4-.63.21-1.06 12.03-8.45 23.03 1.33 16.14 14.35 30.88 30.14.45.48-.05.9l-4.77 3.96q-.44.37-.81-.06-12.53-14.24-26.95-26.49zm694.44-.69c-4.46-3.38-9.72-1.91-13.75 1.17q-.47.36-.78-.14l-5.83-9.16q-.26-.41.12-.72c9.29-7.66 18.08-3.91 26.29 3.77q14.23 13.29 27.74 27.33.5.51-.04.98l-4.65 3.98q-.4.34-.75-.04c-8.94-9.52-17.91-19.27-28.35-27.17z" fill="#a3133f"/></svg>